<svg xmlns="http://www.w3.org/2000/svg" xmlns:xlink="http://www.w3.org/1999/xlink" version="1.1" x="0px" y="0px" viewBox="0 0 100 125" enable-background="new 0 0 100 100" xml:space="preserve"><path d="M89.513,52.195H61.535c-3.028,0-5.487,2.515-5.487,5.615v28.587c0,3.101,2.459,5.609,5.487,5.609h27.978  c3.031,0,5.487-2.509,5.487-5.609V57.811C95,54.71,92.544,52.195,89.513,52.195z M67.929,87.231h-0.336  c-1.986,0-3.592-1.6-3.592-3.579c0-1.968,1.605-3.567,3.592-3.567h0.336c1.989,0,3.596,1.6,3.596,3.567  C71.524,85.632,69.918,87.231,67.929,87.231z M67.929,75.646h-0.336c-1.986,0-3.592-1.601-3.592-3.574  c0-1.973,1.605-3.566,3.592-3.566h0.336c1.989,0,3.596,1.594,3.596,3.566C71.524,74.046,69.918,75.646,67.929,75.646z   M67.929,64.123h-0.336c-1.986,0-3.592-1.601-3.592-3.573c0-1.968,1.605-3.574,3.592-3.574h0.336c1.989,0,3.596,1.606,3.596,3.574  C71.524,62.522,69.918,64.123,67.929,64.123z M83.452,87.231h-0.336c-1.983,0-3.593-1.6-3.593-3.579  c0-1.968,1.609-3.567,3.593-3.567h0.336c1.985,0,3.595,1.6,3.595,3.567C87.047,85.632,85.438,87.231,83.452,87.231z M83.452,75.646  h-0.336c-1.983,0-3.593-1.601-3.593-3.574c0-1.973,1.609-3.566,3.593-3.566h0.336c1.985,0,3.595,1.594,3.595,3.566  C87.047,74.046,85.438,75.646,83.452,75.646z M83.452,64.123h-0.336c-1.983,0-3.593-1.601-3.593-3.573  c0-1.968,1.609-3.574,3.593-3.574h0.336c1.985,0,3.595,1.606,3.595,3.574C87.047,62.522,85.438,64.123,83.452,64.123z   M57.952,90.612c-2.798-1.033-5.904-4.925-5.904-7.589V54.43c0-3.101,2.459-5.609,5.487-5.609h27.978  c2.462,0,6.142,3.336,7.442,4.594c-0.94-0.778-2.139-1.245-3.442-1.245H61.535c-3.028,0-5.487,2.509-5.487,5.609v28.587  C56.048,88.065,56.788,89.579,57.952,90.612z M53.146,26.353L28.369,13.441c-2.683-1.401-6.032-0.311-7.477,2.434L7.526,41.194  c-1.447,2.746-0.448,6.101,2.235,7.496l24.777,12.912c2.68,1.4,6.033,0.312,7.48-2.435l13.366-25.318  C56.835,31.103,55.833,27.754,53.146,26.353z M17.658,47.414l-0.295-0.155c-1.762-0.921-2.434-3.076-1.513-4.825  c0.921-1.749,3.091-2.421,4.85-1.5l0.299,0.156c1.758,0.909,2.437,3.069,1.516,4.818C21.59,47.65,19.417,48.329,17.658,47.414z   M23.071,37.148l-0.292-0.149c-1.765-0.915-2.438-3.082-1.516-4.825s3.094-2.416,4.853-1.506l0.299,0.155  c1.759,0.921,2.434,3.082,1.516,4.825C27.009,37.391,24.836,38.069,23.071,37.148z M28.462,26.944l-0.299-0.156  c-1.758-0.915-2.437-3.075-1.516-4.818c0.921-1.749,3.094-2.421,4.853-1.506l0.299,0.162c1.759,0.915,2.44,3.069,1.516,4.819  C32.394,27.187,30.221,27.859,28.462,26.944z M31.407,54.573l-0.299-0.156c-1.759-0.908-2.434-3.068-1.513-4.818  c0.924-1.749,3.094-2.421,4.856-1.5l0.292,0.149c1.762,0.915,2.434,3.075,1.513,4.818C35.335,54.815,33.166,55.488,31.407,54.573z   M36.823,44.313l-0.299-0.156c-1.758-0.909-2.437-3.069-1.516-4.818c0.924-1.75,3.097-2.422,4.856-1.507l0.295,0.156  c1.759,0.915,2.434,3.082,1.513,4.825S38.579,45.229,36.823,44.313z M42.211,34.104l-0.302-0.149  c-1.756-0.915-2.431-3.075-1.513-4.818c0.921-1.75,3.094-2.422,4.855-1.506l0.296,0.155c1.759,0.916,2.438,3.076,1.516,4.825  C46.14,34.353,43.967,35.025,42.211,34.104z M7.243,45.801c-1.992-2.204-2.926-7.084-1.678-9.444l13.366-25.319  c1.447-2.746,4.793-3.835,7.477-2.434l24.777,12.911c2.179,1.133,3.878,5.79,4.441,7.496c-0.47-1.121-1.311-2.085-2.465-2.683  L28.388,13.417c-2.686-1.401-6.039-0.311-7.483,2.428L7.542,41.164C6.745,42.67,6.695,44.351,7.243,45.801z"/><text x="0" y="115" fill="#000000" font-size="5px" font-weight="bold" font-family="'Helvetica Neue', Helvetica, Arial-Unicode, Arial, Sans-serif">Created by Cris Dobbins</text><text x="0" y="120" fill="#000000" font-size="5px" font-weight="bold" font-family="'Helvetica Neue', Helvetica, Arial-Unicode, Arial, Sans-serif">from the Noun Project</text></svg>