<svg xmlns="http://www.w3.org/2000/svg" xmlns:xlink="http://www.w3.org/1999/xlink" version="1.1" x="0px" y="0px" viewBox="0 0 100 125" enable-background="new 0 0 100 100" xml:space="preserve"><g display="none"><path display="inline" d="M305.246-59.671c-8.319-2.824-21.324-3.503-22.25-4.5c-1.625-1.75-2.75-7.25-6.25-9.125   c-2.999-1.606-18.011-2.325-22.25-2.499l-0.27-0.997c-0.206-0.764-0.896-1.267-1.652-1.286c-0.022-0.552,0.049-1.077,0.339-1.344   c1.218-1.12,2-1.833,2-1.833s-1.038-0.655-2.847-0.58c-0.117-0.763-0.25-2.38,0.514-3.253l-5.5-6.75l-0.338,8.67   c0,0,1.664,0.461,2.137,2.219c-1.602,0.926-2.137,2.235-2.137,2.235l3.197,0.469c0.229,0.153,0.457,0.417,0.67,0.71   c-0.486,0.445-0.799,1.069-0.641,1.656l20.232,71.583c0.252,0.93,1.219,1.484,2.148,1.234c0.931-0.252,1.486-1.219,1.234-2.148   L261.01-51.708c3.808,0.389,18.647,1.979,19.736,3.286c1.25,1.5,1.25,7.375,4.25,8.5c1.5,0.562,8.938-0.609,15,0.75   s10.75,5.25,10.75,5.25s-0.5-3.5-6.5-8.75c-4.789-4.191-10-7-10-7c1.354-1.357,6.152-3.329,10.5-3.5c4.729-0.187,8.975,1.474,9,1   C313.8-53.193,311.526-57.54,305.246-59.671z M260.352-54.143l-5.324-19.69c1.881,1.54,6.112,5.358,6.759,9.037   C262.621-60.047,260.353-54.145,260.352-54.143z"/><path display="inline" d="M293.621,45.954c-1.376-1.085-3.253-1.814-5.245-2.182c-0.037-9.433-2.948-30.664-28.335-31.055   c-26.521-0.41-31.067,19.137-31.84,26.494c-0.278,0.175-0.557,0.348-0.844,0.553c-8.375,5.958-10.621,25.437-3.952,33.587   c6.668,8.15,18.306,3.544,18.771-6.915c0.448-10.111-0.652-23.232-5.551-27.491c-0.069-4.596,0.998-23.559,23.416-22.452   c25.494,1.258,17.802,29.704,17.802,29.704l0.223,0.043c-4.264,5.746-6.503,27.664-1.481,34.192   c4.372,5.683,11.211,6.02,18.125-0.252c3.438-3.119,5.287-7.209,5.287-16.04C299.996,57.439,298.337,49.668,293.621,45.954z    M237.916,65.137c-1.258,6.976-5.502,10.41-8.532,4.775c-3.03-5.634-2.009-19.099,1.797-23.217   C237.019,40.377,239.037,58.902,237.916,65.137z"/><circle display="inline" fill="none" stroke="#000000" stroke-width="5" stroke-miterlimit="10" cx="-116" cy="-20.684" r="10.395"/><path display="inline" d="M-111.221-11.459c0,0-0.279,15.42,8.615,15.42c10.855,0,9.355-24,22.355-18.21c0,0-5.5,4.96-6,8.71   s-0.352,18.75-9.551,23.75S-113,22.46-116,27.71v-38L-111.221-11.459z"/><path display="inline" d="M-120.779-11.459c0,0,0.279,15.42-8.615,15.42c-10.855,0-9.355-24-22.355-18.21c0,0,5.5,4.96,6,8.71   s0.352,18.75,9.551,23.75S-119,22.46-116,27.71v-38L-120.779-11.459z"/><path display="inline" d="M-111.25-29.079v-7.71c0,0,0.25-3.5,4.5-3.5s7.5,0,7.5,0v-6.5h-7.5c0,0-4.5-1-4.5-5.25s0-9.75,0-9.75   H-116v31L-111.25-29.079z"/><path display="inline" d="M-120.75-29.079v-7.71c0,0-0.25-3.5-4.5-3.5s-7.5,0-7.5,0v-6.5h7.5c0,0,4.5-1,4.5-5.25s0-9.75,0-9.75   h4.75v31L-120.75-29.079z"/><g display="inline"><path d="M289.866,104.762c-4.418-0.695-9.866-1.429-17.866-1.429c-7.957,0-12.916,0.511-17.866,1.429    c-2.479,0.459-4.585,2.062-4.585,4.585v70.973c0,2.522,2.158,3.897,4.585,4.586c5.033,1.428,12.7,1.428,17.866,1.428    c4.5,0,11.5,0,17.866-1.428c2.46-0.552,4.586-2.063,4.586-4.586v-70.973C294.452,106.824,292.938,105.244,289.866,104.762z     M256.753,107.574c0.823,0,1.49,0.668,1.49,1.49c0,0.824-0.667,1.49-1.49,1.49s-1.491-0.666-1.491-1.49    C255.262,108.242,255.93,107.574,256.753,107.574z M272,184.267c-1.439,0-2.607-1.168-2.607-2.607c0-1.44,1.168-2.608,2.607-2.608    c1.441,0,2.608,1.168,2.608,2.608C274.608,183.099,273.441,184.267,272,184.267z M292.938,175.099    c0,1.008-0.826,1.834-1.835,1.834h-38.207c-1.01,0-1.834-0.826-1.834-1.834v-60.338c0-1.009,0.824-1.834,1.834-1.834h38.207    c1.009,0,1.835,0.825,1.835,1.834V175.099z"/><circle cx="272" cy="181.659" r="2.236"/></g><path display="inline" d="M-119.334,52.333l-3.166,3.166l-18.5-18.5l-9.667,9.667l-2-2L-182.5,74.5l17.833,0.166H-97   L-119.334,52.333z M-146.75,60.334l-4.542-4.542l-1.416,1.416l-2.729-2.375l-4,4l-1.75-1.75l8.355-8.5l8.917,8.917L-146.75,60.334z    M-135,53.083l-4.541-4.541l-2.416,2.416l-1.459-1.375l-2,2l-3.021-2.751l7.355-7.499l8.916,8.916L-135,53.083z M-115.584,66.417   L-117,67.833l-4.938-4.5l-6.312,6.375l-1.75-1.751l10.668-10.874l8.916,8.916l-2.834,2.834L-115.584,66.417z"/><g display="inline"><path d="M-121.418,126.746l4.71-4.71c0.931-0.931,0.931-2.455,0-3.386l-11.005-11.006c-0.932-0.931-2.455-0.931-3.387,0    l-4.709,4.71c-0.775-0.173-1.621,0.034-2.222,0.634l-5.608,5.609c-0.601,0.601-0.808,1.445-0.634,2.221l-39.398,39.396    c-0.931,0.933-1.853,2.76-2.046,4.062l-1.747,11.688c-0.195,1.302,0.715,2.238,2.022,2.081l12.092-1.458    c1.307-0.158,3.139-1.049,4.07-1.979l39.397-39.397c0.775,0.173,1.622-0.034,2.222-0.634l5.608-5.609    C-121.453,128.367-121.245,127.521-121.418,126.746z M-130.022,109.344c0.433-0.434,1.142-0.434,1.574,0l10.041,10.041    c0.433,0.432,0.433,1.141,0,1.574l-4.134,4.134l-11.615-11.616L-130.022,109.344z M-172.67,174.456l-8.265,1.259l-3.777-3.776    l1.158-8.366c0.1-0.651,0.72-1.184,1.377-1.184h2.264c0.658,0,1.196,0.539,1.196,1.197v1.221c0,0.658,0.539,1.197,1.197,1.197    h1.222c0.658,0,1.197,0.539,1.197,1.197v1.222c0,0.658,0.539,1.197,1.197,1.197l1.221-0.002c0.658,0,1.197,0.539,1.197,1.197    v2.264C-171.487,173.737-172.019,174.357-172.67,174.456z M-128.75,133.062c-0.465,0.465-1.228,0.465-1.692,0l-11.684-11.684    c-0.466-0.465-0.466-1.227,0-1.693l5.186-5.185c0.465-0.466,1.228-0.466,1.692,0l11.684,11.684c0.465,0.466,0.465,1.228,0,1.692    L-128.75,133.062z"/><path d="M-124.882,126.534l-4.497-4.497c-0.248-0.248-0.651-0.248-0.9,0c-0.247,0.248-0.247,0.651,0,0.899l4.498,4.497    c0.248,0.248,0.651,0.249,0.899,0C-124.633,127.186-124.633,126.782-124.882,126.534z"/><path d="M-136.55,116.771l2.766,2.766c0.248,0.247,0.65,0.248,0.899,0c0.248-0.249,0.248-0.652,0-0.9l-2.767-2.766    c-0.247-0.248-0.65-0.248-0.898,0S-136.798,116.522-136.55,116.771z"/><circle cx="-131.554" cy="120.868" r="0.636"/><path d="M-134.367,123.24l4.496,4.497c0.249,0.248,0.651,0.249,0.9,0c0.248-0.249,0.248-0.651,0-0.899l-4.497-4.497    c-0.248-0.248-0.651-0.249-0.899,0C-134.616,122.589-134.615,122.992-134.367,123.24z"/><path d="M-138.747,118.967l1.072,1.072c0.249,0.248,0.651,0.248,0.9,0c0.248-0.248,0.248-0.652,0-0.899l-1.073-1.073    c-0.248-0.248-0.651-0.248-0.899,0C-138.996,118.315-138.994,118.719-138.747,118.967z"/><circle cx="-135.795" cy="121.018" r="0.636"/><circle cx="-127.581" cy="129.232" r="0.635"/><path d="M-135.557,124.377l-4.497-4.496c-0.248-0.248-0.651-0.249-0.899,0c-0.249,0.248-0.249,0.65,0,0.898l4.496,4.498    c0.248,0.248,0.651,0.248,0.9,0C-135.309,125.028-135.309,124.625-135.557,124.377z"/><path d="M-130.862,129.179l-1.661-1.661c-0.248-0.247-0.65-0.248-0.899,0c-0.247,0.249-0.247,0.652,0,0.9l1.662,1.66    c0.247,0.248,0.649,0.249,0.898,0C-130.614,129.83-130.614,129.427-130.862,129.179z"/><circle cx="-134.538" cy="126.296" r="0.636"/><circle cx="-129.644" cy="131.296" r="0.636"/></g><path display="inline" d="M150.037-22.753c-11.529,0-16.666-43-16.666-43h33.333C166.704-65.753,165.038-22.753,150.037-22.753z"/><path display="inline" d="M166.704-65.753c0,0-2.666,43-17.667,43c-13.332,0-15.666-43-15.666-43"/><path display="inline" d="M154.371-72.086c0,2.578-2.09,4.667-4.667,4.667l0,0c-2.577,0-4.667-2.089-4.667-4.667v-23.666   c0-2.578,2.09-4.667,4.667-4.667l0,0c2.577,0,4.667,2.089,4.667,4.667V-72.086z"/><g display="inline"><polygon fill="#000000" points="183.502,143.688 161.436,141.59 161.559,153.357 177.512,156.455 167.838,164.875     172.637,157.264 159.908,154.977 159.533,153.352 130.416,151.995 137.805,182.123 171.043,182.406 185.674,159.004   "/><polygon fill="#000000" points="179.289,140.852 179.008,130.002 167.814,129.514 168.17,139.682   "/><polygon fill="#000000" points="159.34,139.583 166.264,139.766 166.047,126.719 154.986,126.296 155.91,150.405 159.695,150.55       "/><polygon fill="#000000" points="153.846,150.279 153.092,127.562 142.771,127.32 143.579,149.746   "/><polygon fill="#000000" points="141.291,149.982 140.875,129.727 130.554,129.484 131.024,149.449   "/></g><polygon display="inline" fill="#000000" points="83.861,146.333 71.361,158.833 71.361,157.833 45.157,159.713 46.823,157.311    34.49,158.713 50.823,154.644 49.823,157.311 71.363,153.833 72.885,115.583 63.895,115.583 62.68,144.833 58.723,144.833    59.398,109.583 50.408,109.583 49.916,144.833 45.621,144.833 44.829,113.333 35.838,113.333 36.814,144.833 32.607,144.833    31.854,118.583 22.861,118.583 23.963,153.833 24.084,153.833 24.766,170.654 29.861,186.333 68.672,186.333 91.861,152.333  "/></g><g><g><g><polygon fill="#000000" points="71.142,47.089 47.735,53.208 49.568,60.875 64.401,58.209 60.568,64.709 61.688,60.042      48.735,62.708 47.047,55.964 25.401,60.042 26.544,72.91 31.64,84.589 69.45,84.589 77.139,57.089    "/><polygon fill="#000000" points="71.423,44.354 74.663,12.839 64.672,10.839 59.5,42.089 54.177,10.839 44.186,12.839      49.123,50.644    "/></g><polygon fill="#000000" points="45.964,51.312 46.324,54.03 38.067,55.292 35.234,36.708 45.146,35.509 47.236,51.068   "/><polyline fill="#000000" points="33.149,37.797 32.773,37.847 22.861,39.047 25.694,57.631 35.234,56.172   "/></g></g><text x="0" y="115" fill="#000000" font-size="5px" font-weight="bold" font-family="'Helvetica Neue', Helvetica, Arial-Unicode, Arial, Sans-serif">Created by Monjin Friends</text><text x="0" y="120" fill="#000000" font-size="5px" font-weight="bold" font-family="'Helvetica Neue', Helvetica, Arial-Unicode, Arial, Sans-serif">from the Noun Project</text></svg>