<svg xmlns="http://www.w3.org/2000/svg" xmlns:xlink="http://www.w3.org/1999/xlink" version="1.1" x="0px" y="0px" viewBox="0 0 1000 1250" style="enable-background:new 0 0 1000 1000;" xml:space="preserve"><g><g><path d="M216.1,190.8l122,618.5h323.7l122-618.5H216.1z M650.3,774.9H349.7L236.4,207.1h527.1L650.3,774.9z"/></g><g><path d="M490.9,389.7c-61.3,19.2-124,8-200-28l68,392h278l68-406C704.9,347.7,624.9,347.7,490.9,389.7z     M617.3,702.9c-0.6,3.7-3.8,6.3-7.4,6.3c-0.4,0-0.8,0-1.2-0.1c-4.1-0.7-6.9-4.5-6.2-8.6l51-315c0.7-4.1,4.5-6.9,8.6-6.2    c4.1,0.7,6.9,4.5,6.2,8.6L617.3,702.9z"/></g></g><text x="0" y="1015" fill="#000000" font-size="5px" font-weight="bold" font-family="'Helvetica Neue', Helvetica, Arial-Unicode, Arial, Sans-serif">Created by sai aditya</text><text x="0" y="1020" fill="#000000" font-size="5px" font-weight="bold" font-family="'Helvetica Neue', Helvetica, Arial-Unicode, Arial, Sans-serif">from the Noun Project</text></svg>