<svg xmlns="http://www.w3.org/2000/svg" data-name="Layer 1" viewBox="0 0 100 125" x="0px" y="0px"><defs><style>.cls-1{fill:#040000;}</style></defs><title>2</title><path class="cls-1" d="M52.43,30h.06a1.3,1.3,0,0,0,1.3-1.24l.4-9.31a1.3,1.3,0,0,0-1.24-1.35,1.26,1.26,0,0,0-1.35,1.24l-.4,9.31A1.3,1.3,0,0,0,52.43,30Z"/><path class="cls-1" d="M68.38,34.45a3.89,3.89,0,0,0-2.89-1.18,4.43,4.43,0,0,0-2.87,2c-1.56,1.9-3.18,3.86-10-.7-3-2.46-5.65-.42-8,1.39C41.78,38.2,38.51,40.72,32.84,39a1.3,1.3,0,0,0-.74,2.49,15,15,0,0,0,4.3.67c4.47,0,7.5-2.34,9.85-4.16,2.07-1.6,3-2.21,4-1.91A22.62,22.62,0,0,0,49,50.63c-.58,5.33-3.22,19.07-9,22.54a1.3,1.3,0,0,0,1.34,2.23c5.55-3.34,8.26-13.19,9.45-19.42.38.86.81,1.74,1.31,2.63,6.93,12.58,7.62,22,7.63,22.07A1.3,1.3,0,0,0,61,81.91h.09a1.3,1.3,0,0,0,1.21-1.38c0-.4-.71-10-7.95-23.16a28.28,28.28,0,0,1-2.77-7,1.28,1.28,0,0,0-.07-.28,20.11,20.11,0,0,1,.9-12.56C55.31,39.28,57.51,40,59.24,40c2.56,0,4.11-1.47,5.39-3,.35-.42.87-1.05,1.09-1.07,0,0,.29,0,1,.57a1.3,1.3,0,1,0,1.69-2Z"/><text x="0" y="115" fill="#000000" font-size="5px" font-weight="bold" font-family="'Helvetica Neue', Helvetica, Arial-Unicode, Arial, Sans-serif">Created by egoya</text><text x="0" y="120" fill="#000000" font-size="5px" font-weight="bold" font-family="'Helvetica Neue', Helvetica, Arial-Unicode, Arial, Sans-serif">from the Noun Project</text></svg>