<svg xmlns="http://www.w3.org/2000/svg" xmlns:xlink="http://www.w3.org/1999/xlink" version="1.1" x="0px" y="0px" viewBox="0 0 100 125" enable-background="new 0 0 100 100" xml:space="preserve"><g><path d="M61.348,15.985c0-4.606-3.734-8.339-8.34-8.339c-4.606,0-8.339,3.733-8.339,8.339s3.733,8.339,8.339,8.339   C57.613,24.324,61.348,20.591,61.348,15.985L61.348,15.985z"/></g><g><path d="M59.333,76.053L55,65.178c-0.193-0.486-0.293-1.006-0.293-1.527c0-1.044-0.846-1.89-1.889-1.89   c-1.044,0-1.889,0.846-1.889,1.89c0,0.521-0.1,1.041-0.293,1.527l-4.759,11.944c-0.279,0.7-0.744,1.31-1.345,1.764L29.82,90.018   c-1.819,1.376-4.408,1.018-5.783-0.801c-1.376-1.818-1.018-4.406,0.801-5.784l13.794-10.437l4.039-10.139V33.444   c-7.437-7.209-12.64-16.408-14.985-26.496c-0.44-1.894,0.739-3.788,2.633-4.228s3.787,0.738,4.228,2.632   c2.078,8.942,6.738,17.076,13.4,23.391h10.12c6.662-6.314,11.322-14.449,13.4-23.391c0.439-1.894,2.333-3.072,4.227-2.632   c1.896,0.44,3.074,2.334,2.635,4.228C75.943,17.21,70.602,26.55,62.965,33.808v29.05l4.465,11.208   c0.279,0.7,0.361,1.464,0.237,2.206l-3.026,18.199c-0.373,2.248-2.5,3.769-4.749,3.395s-3.771-2.5-3.396-4.751L59.333,76.053z"/></g><text x="0" y="115" fill="#000000" font-size="5px" font-weight="bold" font-family="'Helvetica Neue', Helvetica, Arial-Unicode, Arial, Sans-serif">Created by Lluisa Iborra</text><text x="0" y="120" fill="#000000" font-size="5px" font-weight="bold" font-family="'Helvetica Neue', Helvetica, Arial-Unicode, Arial, Sans-serif">from the Noun Project</text></svg>