<svg xmlns="http://www.w3.org/2000/svg" xmlns:xlink="http://www.w3.org/1999/xlink" version="1.1" x="0px" y="0px" viewBox="0 0 100 125" enable-background="new 0 0 100 100" xml:space="preserve"><path fill="#000000" d="M89.7,39.8c0.3-0.4,0.3-0.9,0.1-1.3c-0.2-0.4-0.7-0.7-1.1-0.7h-1.3c-4.8,0-8.9,2.8-10.9,6.8  c-2.1-6-7.7-10.3-14.2-10.6c0,0-0.1,0-0.1,0c-0.1,0-0.2,0-0.3,0c-0.1,0-0.2,0-0.3,0c0,0,0,0,0,0H37.6c-6.7,0-12.4,4.2-14.7,10  c-2.1-3.7-6.1-6.3-10.6-6.3H11c-0.5,0-0.9,0.3-1.1,0.7c-0.2,0.4-0.2,0.9,0.1,1.3c1.8,2.7,2.8,6.3,2.8,10.1v0.3c0,3.8-1,7.3-2.8,10.1  c-0.3,0.4-0.3,0.9-0.1,1.3c0.2,0.4,0.7,0.7,1.1,0.7h1.3c4.6,0,8.6-2.5,10.6-6.3c2.2,5.7,7.6,9.7,14,10c0,0,0,0,0,0  c0.1,0,0.2,0,0.3,0c0.1,0,0.2,0,0.2,0c0,0,0.1,0,0.1,0h23.8c6.9,0,12.8-4.4,14.9-10.6c2,4,6.1,6.8,10.9,6.8h1.3  c0.5,0,0.9-0.3,1.1-0.7c0.2-0.4,0.2-0.9-0.1-1.3c-1.8-2.7-2.8-6.3-2.8-10.1v-0.3C86.9,46.1,87.9,42.6,89.7,39.8z M21.8,50.2  c0,4.9-3.8,9-8.6,9.5c1.3-2.8,2.1-6,2.1-9.4v-0.3c0-3.4-0.7-6.7-2.1-9.4c4.8,0.5,8.6,4.5,8.6,9.5V50.2z M34.2,63  c-5.7-1.5-9.8-6.7-9.8-12.8v0v-0.2v0c0-7.3,5.9-13.2,13.2-13.2h9.3L34.2,63z M37.6,63.4c-0.2,0-0.5,0-0.7,0l12.9-26.8h11.6  c0.2,0,0.4,0,0.6,0c0,0,0,0,0,0L49.2,63.4H37.6z M74.7,50.2c0,7.3-5.9,13.2-13.2,13.2H52l12.7-26.4c5.7,1.5,10,6.7,10,12.8V50.2z   M86.4,59.6c-4.8-0.5-8.6-4.5-8.6-9.5v-0.2c0-4.9,3.8-9,8.6-9.5c-1.3,2.8-2.1,6-2.1,9.4v0.3C84.3,53.6,85.1,56.9,86.4,59.6z"/><path fill="#000000" d="M35.1,39.1c-3.9,1.5-7,4.9-8.1,9c-0.2,0.7,0.2,1.4,0.9,1.6c0.1,0,0.2,0,0.3,0c0.6,0,1.1-0.4,1.3-1  c0.9-3.3,3.4-6.1,6.5-7.3c0.7-0.3,1-1,0.7-1.7C36.5,39.2,35.7,38.9,35.1,39.1z"/><text x="0" y="115" fill="#000000" font-size="5px" font-weight="bold" font-family="'Helvetica Neue', Helvetica, Arial-Unicode, Arial, Sans-serif">Created by Alvaro Cabrera</text><text x="0" y="120" fill="#000000" font-size="5px" font-weight="bold" font-family="'Helvetica Neue', Helvetica, Arial-Unicode, Arial, Sans-serif">from the Noun Project</text></svg>