<svg xmlns="http://www.w3.org/2000/svg" data-name="Layer 1" viewBox="0 0 100 125" x="0px" y="0px"><title>Doodle2</title><path d="M83.93,45.19a17,17,0,0,0-6-12.32,76.93,76.93,0,0,0-8.13-6,20.38,20.38,0,0,0-5.15-2.16,11.1,11.1,0,0,0-2.36-.37,14.86,14.86,0,0,1-1.57-.19c-1-.19-2-0.41-3-0.64s-2.3-.52-3.47-0.73c-0.85-.15-1.72-0.22-2.56-0.29-0.58,0-1.17-.09-1.74-0.17a10.12,10.12,0,0,1-1.1-.23,6.69,6.69,0,0,0-2-.28,24.71,24.71,0,0,0-5.3.82,35,35,0,0,0-10.8,5.08c-3.16,2.3-7.6,6-9.71,11.6a2.65,2.65,0,0,1-.24.44,4.44,4.44,0,0,0-.27.47c-0.24.52-.51,1-0.77,1.56a18.2,18.2,0,0,0-1.6,3.81,105.88,105.88,0,0,0-2.14,11.05c-0.62,4.43.76,8.62,4.08,12.44,1,1.19,2,2.43,2.79,3.49,0.31,0.41.59,0.84,0.88,1.27a16.55,16.55,0,0,0,1.5,2,21.37,21.37,0,0,0,7.17,4.78,47.94,47.94,0,0,0,5.77,2L39,82.95a41.35,41.35,0,0,0,12.31,2.34H51.5l1.81-.21c1.33-.15,2.7-0.3,4-0.52a28.4,28.4,0,0,0,7-2.4l0.8-.36a36.89,36.89,0,0,0,6.93-3.91,25.73,25.73,0,0,0,8-9A22.15,22.15,0,0,0,82.4,62c0.17-1.16.43-2.33,0.67-3.47a41.24,41.24,0,0,0,.84-4.78A53.35,53.35,0,0,0,83.93,45.19ZM31.69,78.41a24.39,24.39,0,0,1-2.17-1.23,15,15,0,0,1-4.64-4.45,38.6,38.6,0,0,0-2.45-3.31c-0.42-.52-0.83-1-1.23-1.57a16.56,16.56,0,0,1-3.3-6.29c-0.86-3.85-.06-7.49.79-11.33l0.19-.88a36.37,36.37,0,0,1,1.67-5.76,62.83,62.83,0,0,1,3-6.09l0.16-.29a8.23,8.23,0,0,1,1.21-1.56l0.38-.42c0.47-.54.95-1.07,1.43-1.6,0.65-.71,1.29-1.43,1.92-2.16A0.57,0.57,0,0,1,29,31.19a0.92,0.92,0,0,1,.4.14,9.52,9.52,0,0,1,3.4,3.45L30.79,36l0.58,1.28,2.47-1.1,1.3,2.66-1.78.91,0.35,1.18,2.06-.49c1.11,1.55,1.08,3.3.9,5.11L35,46.17l0.16,1.08,0.63,0c0.2,0,.4,0,0.6,0l0.39,0L38,51.86l-2.6.59-0.08,1.19,0.49,0,0.36,0a4.25,4.25,0,0,0,1,.06,5.46,5.46,0,0,0,.87-0.16V58H36.4L36,59l0.45,0.17,0.34,0.12a2.35,2.35,0,0,1,.57.24,1.76,1.76,0,0,1,.38.34c-0.16,1.17-.38,2.4-0.68,3.74a0.71,0.71,0,0,1-.27.11,8.5,8.5,0,0,1-1.17-.07L35,63.61l-0.94-.08,0.46,0.82a2.12,2.12,0,0,0,1.8,1.06,3.57,3.57,0,0,1,.6.12l-1.24,5-2.49-.65-0.49,1.25,0.43,0.2,0.43,0.21A5,5,0,0,0,34.7,72a0.62,0.62,0,0,1,.38.16,0.58,0.58,0,0,1-.07.34L34,75l-0.25.61L32.07,75,31.5,76.05l1.57,1.17-0.79,1.5Zm2.72-.49,1.71,0.37,0.35-1.11-1.38-.79,1.5-3.66,2.07,0.67,0.55-1.22-2.09-1.06,1.41-5.51,2,0.37,0.36-1.33-2.13-.74,0.76-4.17,1.89,0.09,0.22-1.27-2-.46V53.21l1.26-.31-0.12-.58a0.52,0.52,0,0,0-.53-0.53c-0.6,0-.68-0.17-0.86-1l0-.24c-0.21-1-.48-1.93-0.76-2.93l-0.22-.79,2.86-.71-0.22-1.35-2.63.34a9,9,0,0,0-.92-5.16l1.72-.6L38.9,38.1l-0.45,0a3.54,3.54,0,0,0-1.3.16,0.61,0.61,0,0,1-.39.08,0.75,0.75,0,0,1-.29-0.43c-0.29-.68-0.58-1.35-0.88-2l-0.23-.54,2.57-1.43-0.69-1.32-2.69,1.32L30.4,29.78l0.33-.24a15.49,15.49,0,0,1,2.09-1.36C35,27.11,37.25,26,40.28,24.69l0.09,0A5.29,5.29,0,0,1,43.92,24a1.06,1.06,0,0,0,.75-0.08,6.16,6.16,0,0,1,4.1-.25l0.48,0.08c0.94,0.14,1.91.22,2.83,0.3s2.14,0.18,3.18.36c1.43,0.25,2.88.63,4.27,1l1.32,0.35-1.24,3.55a6.86,6.86,0,0,1-.78,0,4,4,0,0,0-2.52.42l-0.23.15v1.07H59l-0.12.63c-0.24,1.24-.47,2.41-0.74,3.57a1.45,1.45,0,0,1-.44.12c-0.45,0-.91,0-1.39,0h-1l-0.24,1.23L56,36.61a7.75,7.75,0,0,0,1,.17,10,10,0,0,0,1.1,0h0L58,37.34c-0.1.75-.19,1.46-0.31,2.16-0.21,1.25-.21,1.25-1.47,1.48-0.42.08-.85,0.17-1.28,0.27a0.66,0.66,0,0,0-.4.34l-0.18.26-0.6.85,3.31-.19v0.73c0,1.29,0,2.51,0,3.68a1.13,1.13,0,0,1-.42.33,3,3,0,0,1-.73.19l-0.4.08-0.44.1,0.15,1.2H56.8v3.68l-1.36.61-0.38.25,0.35,1.16,1.84-.43,0.08,0.67c0.15,1.2.29,2.33,0.38,3.46a1.26,1.26,0,0,1-.39.47,14.78,14.78,0,0,1-1.21.85l-0.53.35-0.39.27,0.7,1.16,1.91-1,1.41,5.76-1.64,1.35,0.89,1.1,2-1.48,2.58,2-2,2.54,0.84,0.76,0.3-.13a3.51,3.51,0,0,0,1.41-1.39,6.74,6.74,0,0,1,.5-0.67l0.21,0.22c0.52,0.52,1,1,1.46,1.54a1,1,0,0,1-.11.39c-0.29.48-.61,0.94-1,1.42l-0.69,1,1.16,0.84,1.85-2.41a10,10,0,0,0,5,2.8l-0.9.65a22.79,22.79,0,0,1-3.47,2.24l-1.31.64A35.4,35.4,0,0,1,57,83a31.36,31.36,0,0,1-14-.67c-2.21-.63-4.44-1.33-6.61-2l-2-.63a4.85,4.85,0,0,1-.65-0.27ZM73,74.38a7.5,7.5,0,0,1-5-2.53l0.84-.93L68.05,70l-1,.67L65.27,69a0.68,0.68,0,0,1-.17-0.2,0.42,0.42,0,0,1,.12-0.15,3.37,3.37,0,0,0,.45-0.59l0.15-.22,0.25-.35-0.9-.86L64,67.75l-2.38-1.83,1.65-1.56-0.85-1-1.85,1.39a6.75,6.75,0,0,1-.86-2.8c-0.06-.36-0.11-0.71-0.19-1.07-0.27-1.26-.27-1.26,1-1.89a1.06,1.06,0,0,0,.51-1V57.25l-1.77.53-0.53-4.16L60.83,53,60.6,51.68l-2.23.3c0-.17,0-0.34,0-0.51,0-1,0-1.92,0-2.77a2.31,2.31,0,0,1,.81-0.48,13.25,13.25,0,0,1,1.45-.49l0.66-.2,0.45-.14-0.33-1.31-2.64.6V45.9c0-1.16,0-2.3,0-3.44,0-.1,0-0.15,0-0.16a1.52,1.52,0,0,1,.36,0H61l0.1-1.38-1.93-.27,0.06-.45c0.15-1.12.31-2.27,0.49-3.4a1.39,1.39,0,0,1,.3-0.06l0.58,0a10.31,10.31,0,0,0,1.59-.13l1-.17-0.69-.68a2.61,2.61,0,0,0-1.9-.62A4.8,4.8,0,0,1,59.74,35l0.13-.49c0.29-1.13.59-2.28,0.91-3.43l0.08,0L61.09,31l0.46-.17L63,30.29l-1.83-.87,0.21-.51c0.36-.89.73-1.81,1.13-2.67A0.92,0.92,0,0,1,63,26a8.9,8.9,0,0,1,5.5,1.78c3,2,5.82,4.12,8.53,6.28,2.11,1.68,3.61,4.09,4.72,7.58a22.59,22.59,0,0,1,.71,7c0,0.63,0,1.25,0,1.88A45.39,45.39,0,0,1,81.06,61c-0.18.83-.36,1.67-0.53,2.5a16.9,16.9,0,0,1-3.32,7.14,38.81,38.81,0,0,1-3,3.42A1.68,1.68,0,0,1,73,74.38Z"/><text x="0" y="115" fill="#000000" font-size="5px" font-weight="bold" font-family="'Helvetica Neue', Helvetica, Arial-Unicode, Arial, Sans-serif">Created by Sean Maldjian</text><text x="0" y="120" fill="#000000" font-size="5px" font-weight="bold" font-family="'Helvetica Neue', Helvetica, Arial-Unicode, Arial, Sans-serif">from the Noun Project</text></svg>