<svg xmlns="http://www.w3.org/2000/svg" xmlns:xlink="http://www.w3.org/1999/xlink" version="1.1" x="0px" y="0px" viewBox="0 0 100 125" style="enable-background:new 0 0 100 100;" xml:space="preserve"><style type="text/css">
	.st0{fill:none;stroke:#000000;stroke-width:2;stroke-linecap:round;stroke-linejoin:round;stroke-miterlimit:10;}
	.st1{fill:none;stroke:#000000;stroke-width:2;stroke-miterlimit:10;}
</style><path d="M51.028,90c1.765,0,3.2-1.436,3.2-3.2V58.246c5.089-0.681,10.005-2.946,13.908-6.849c4.58-4.58,7.103-10.67,7.103-17.147  s-2.522-12.567-7.103-17.147c-9.455-9.455-24.839-9.453-34.294,0c-4.58,4.58-7.104,10.67-7.104,17.147s2.523,12.567,7.104,17.147  c3.923,3.923,8.868,6.192,13.985,6.86V86.8C47.828,88.564,49.264,90,51.028,90z M51.516,56.465  c-1.245-2.048-5.656-10.436-0.876-19.653c2.973,9.506,11.057,13.169,14.752,14.373C61.394,54.59,56.476,56.349,51.516,56.465z   M67.914,19.83c3.327,3.894,5.185,8.753,5.301,13.911c-2.094,1.267-10.443,5.614-19.616,0.864  C63.088,31.603,66.726,23.495,67.914,19.83z M53.075,32.674c4.597-8.832,1.444-17.14-0.31-20.579  c4.924,0.391,9.731,2.413,13.558,6.061C65.747,20.432,62.86,29.532,53.075,32.674z M51.364,31.644  c-3.019-9.506-11.163-13.13-14.806-14.303c4.004-3.421,8.935-5.188,13.906-5.305C51.709,14.082,56.107,22.445,51.364,31.644z   M34.066,48.67c-3.318-3.882-5.174-8.725-5.3-13.867c1.968-1.206,10.395-5.706,19.664-0.923  C38.905,36.871,35.255,44.999,34.066,48.67z M48.905,35.826c-4.598,8.833-1.443,17.142,0.311,20.58  c-4.924-0.391-9.733-2.414-13.561-6.063C36.234,48.067,39.122,38.968,48.905,35.826z M52.229,86.8c0,0.662-0.538,1.2-1.2,1.2  s-1.2-0.538-1.2-1.2V58.433c0.388,0.018,0.774,0.055,1.162,0.055c0.413,0,0.825-0.038,1.238-0.059V86.8z M67.069,49.601  c-2.351-0.605-11.384-3.529-14.492-13.292c3.391,1.771,6.706,2.415,9.699,2.415c4.793-0.001,8.749-1.605,10.876-2.687  C72.749,41.135,70.628,45.876,67.069,49.601z M34.881,18.931c2.199,0.552,11.374,3.406,14.548,13.222  c-8.867-4.603-17.2-1.4-20.605,0.347C29.219,27.402,31.332,22.66,34.881,18.931z"/><text x="0" y="115" fill="#000000" font-size="5px" font-weight="bold" font-family="'Helvetica Neue', Helvetica, Arial-Unicode, Arial, Sans-serif">Created by Made</text><text x="0" y="120" fill="#000000" font-size="5px" font-weight="bold" font-family="'Helvetica Neue', Helvetica, Arial-Unicode, Arial, Sans-serif">from the Noun Project</text></svg>