<svg xmlns="http://www.w3.org/2000/svg" xmlns:xlink="http://www.w3.org/1999/xlink" version="1.1" x="0px" y="0px" viewBox="0 0 100 125" enable-background="new 0 0 100 100" xml:space="preserve"><g><path fill="#000000" d="M93.2,18c0.8,0.1,1.6-0.5,1.6-1.4c0.1-0.8-0.5-1.6-1.4-1.6c-0.4,0-3.7-0.2-5.8,1.9   c-2.9,2.9-0.2,9.9,1.6,13.8c2.3,4.8,1.8,8.2-1.5,10c-0.7,0.4-1.4,0.5-2.1,0.2c-1.3-0.5-2.7-2.1-3.7-4.6c-0.1-0.4-0.3-0.7-0.4-1   c-0.2-0.5-0.4-1-0.6-1.5c-0.5-2-1.2-4-2.1-6.1c-1.4-3.2-4.3-6-8.2-8c-4.1-2.1-9.1-3.2-14.5-3.2c-1.9,0-3.9,0.1-5.9,0.4   c-4.7,0.7-8.9,1.8-12.7,3.6c-1,0.1-2.6,0.1-3.8,0.1c-3.3,0-7.5,0-10.5,1.1c-2,0.8-2.7,2-2.8,3c-0.6,2.9,2.4,6.2,3.5,7.3   c-2,3.1-3.1,5.8-3.6,7.2l-0.1,0.3c-0.3,0.9-0.7,2.2-1.1,4c-0.6-0.5-1.1-1.1-1.5-1.7c-2.6-3.4-1.9-7.2-1.3-10.6   c0.5-2.9,1-5.6-0.9-7.4c-2.8-2.6-7.8-0.8-8.3-0.6c-0.8,0.3-1.2,1.2-0.9,2c0.3,0.8,1.2,1.2,2,0.9c1.2-0.5,4-1.1,5.2,0   c0.7,0.7,0.4,2.6,0,4.7c-0.6,3.6-1.5,8.5,1.9,13c0.9,1.2,2,2.3,3.3,3.3c-0.3,1.8-0.4,3.8-0.5,5.9c-0.4,0.2-0.8,0.6-1.2,1   c-0.9,0.8-2,1.8-3.9,2.2c-0.9,0.2-1.8,0.3-2.7,0.4c-1.8,0.2-3.6,0.4-4.6,1.8c-0.7,0.9-0.9,2-0.7,3.6c0.6,3.9,4.4,8.1,10.4,8.1   c1.4,0,2.8-0.2,4.3-0.6c0.3-0.1,0.7-0.2,1-0.3c0.7,1.7,1.6,3.3,2.7,4.9c3.3,4.4,7.5,8,12.3,10.5c4.4,2.3,9.1,3.4,13.6,3.4   c1.5,0,2.9-0.1,4.3-0.4c0.6-0.1,1.1-0.2,1.6-0.4c3.3,3.5,8.5,4.8,12.7,4.8c1,0,2-0.1,2.9-0.2c2.2-0.4,3.5-1.3,3.8-2.5   c0.7-3-1.1-5.9-2.7-8.4c-0.8-1.3-1.7-2.6-1.8-3.5c-0.1-0.8,0.1-1.9,0.4-3.1c0.5-2.1,1-4.8-0.1-7.7c-0.5-1.2-1.3-2.8-2.9-3.4   c-2.1-0.7-4.2,0.6-7.4,2.5l-0.2,0.1c-4,2.4-6,5.9-6.9,8.2c-0.7,0-1.7-0.2-2.9-0.6c-2.7-0.8-5.1-3-6.3-5.5c0.6,0.4,1.2,0.7,1.9,1   c1.1,0.4,2.2,0.6,3.1,0.6c1.9,0,5.3-0.9,5.9-7.3c0.2-1.5-0.1-2.7-0.9-3.6c-1.1-1.2-2.8-1.4-4.4-1.4c-0.3,0-0.6,0-0.9,0   c-0.3,0-0.6,0-0.8,0c-0.2,0-0.3,0-0.5-0.1c1.4-0.7,3.3-0.9,6.1-0.9h1.5c1.3,0,2.5,0,3.7,0c0.2,1.2,0.5,2.4,0.8,3.4   c0.2,0.7,0.8,1.1,1.5,1.1c0.1,0,0.3,0,0.4-0.1c0.8-0.2,1.3-1.1,1-1.9c-0.2-0.8-0.4-1.8-0.6-2.8c3.4-0.3,7-1,11.4-2.7   c0.2-0.1,0.5-0.2,0.7-0.3c0.2,0.8,0.5,1.6,0.7,2.5c0.2,0.7,0.8,1.1,1.5,1.1c0.1,0,0.2,0,0.4,0c0.8-0.2,1.3-1,1.1-1.8   c-0.3-1.1-0.6-2.3-0.9-3.3c1.8-1.3,3.2-3,4.1-5.1c0.6-1.5,1-3.1,1.1-4.9c0.9,1,1.9,1.8,3,2.1c1.5,0.5,3,0.4,4.5-0.4   c2.8-1.5,6.8-5.4,2.8-14c-3-6.3-2.9-9.6-2.2-10.4C90.7,18.1,92.6,18,93.2,18z M54.8,53.3h-1.5c-4,0-6.7,0.5-8.9,2.1   c-0.4,0.3-0.8,0.7-1.2,1.1c-0.7,0.7-1.3,1.6-1.9,2.7c-0.4,0.8-0.8,1.5-1,2.3c-0.2,0.8-0.4,1.6-0.4,2.4c-0.3,5.6,4.2,10.7,9.3,12.3   c1.3,0.4,2.3,0.6,3.1,0.7c0.3,0,0.6,0,0.9,0c0.2,0,0.4,0,0.6,0c0.6,0,1-0.2,1.4-0.3c0.7-0.2,1.3-0.4,2-0.4c0.5,0,1,0.1,1.7,0.3   c3.2,1.1,2.8,5-2.8,7.1c-0.3,0.1-0.7,0.3-1.1,0.4c-0.4,0.1-0.8,0.2-1.3,0.3c-0.3,0.1-0.6,0.1-0.8,0.2c-1.2,0.2-2.5,0.3-3.7,0.3   c-7.8,0-17-4.1-23.5-12.7c-1-1.3-1.8-2.8-2.5-4.4c4.1-2.7,5.5-7,5.2-9.2c-0.2-1.5-1.2-2.1-2-2.1c-0.8-0.1-3.9-1.5-5.4-2.7   c0-1.7,0.2-3.3,0.3-4.9c1.6,0.9,3.3,1.7,5.1,2.3c2.3,0.8,4.5,1.1,6.6,1.1c2.7,0,5.1-0.6,7.2-1.9c3.8-2.3,5.5-6,6.9-9.3   c0.4-0.9,0.8-1.8,1.2-2.5c0.2,0.6,0.6,1.3,1.1,2c1.6,2.1,4.3,3.3,8,3.8c0,0.9,0,2.5,0.2,5.3c0.1,1,0.2,2.2,0.3,3.4   C57,53.3,55.9,53.3,54.8,53.3z M23.2,40.6c1.1-2.9,4.2-11.8,15.3-17.1c0.8-0.4,1.6-0.7,2.4-1h0c2.8-1.1,6.1-2,9.9-2.5   c1.9-0.3,3.8-0.4,5.5-0.4c9.9,0,16.9,4,19.4,8.5c-1.2-0.4-2.6-0.4-4.2-0.2c-1.4,0.2-2.8,0.9-4.2,1.5c-1,0.5-2.1,0.9-3.1,1.2   c-1.7,0.5-4.2,0.6-6.4,0.6c-1.8,0-3.5,0.1-4.8,0.4c-0.6,0.1-1.2,0.4-1.8,0.8c-3.5,1.1-5.1,4.5-6.6,7.8c-1.4,3-2.8,6.2-5.7,7.9   C34,50.9,26.9,49,22,45.7C22.4,43.3,22.8,41.5,23.2,40.6z M76.4,34.7c-1,2.7-7,6.3-13.1,6.9c-0.9,0.1-1.8,0.1-2.7,0.1   c-4.2,0-7.2-1-8.6-2.7c-0.7-1-1-1.8-0.7-2.6c0.2-0.5,0.6-1,1-1.3c0.4-0.3,0.9-0.5,1.3-0.6c1-0.2,2.5-0.3,4.2-0.3   c2.4,0,5-0.1,7.2-0.7c1.2-0.3,2.3-0.9,3.5-1.4c1.3-0.6,2.5-1.1,3.5-1.3c0.5-0.1,1-0.1,1.4-0.1c1.4,0,2.4,0.4,2.9,1.2   c0,0.1,0.1,0.1,0.1,0.2C76.7,32.8,76.7,33.7,76.4,34.7z M60.7,44.7c0.9,0,1.9,0,2.8-0.1c2.3-0.2,4.6-0.8,6.7-1.6   c0.6,1.3,1.6,3.9,2.7,7.3c-0.3,0.1-0.6,0.3-0.9,0.4c-4.3,1.6-7.6,2.2-10.8,2.5C60.8,49.5,60.7,45.9,60.7,44.7z M73,41.7   c2.4-1.3,4.4-2.9,5.5-4.6c0.7,4.8-0.2,8.8-3,11.4C74.5,45.3,73.5,42.9,73,41.7z"/><path fill="#000000" d="M43.3,30.9c0.9,0,1.6-0.7,1.6-1.6c0-0.9-0.7-1.6-1.6-1.6c-0.9,0-1.6,0.7-1.6,1.6   C41.7,30.1,42.4,30.9,43.3,30.9z"/><path fill="#000000" d="M66.1,25.7c0.9,0,1.6-0.7,1.6-1.6c0-0.9-0.7-1.6-1.6-1.6c-0.9,0-1.6,0.7-1.6,1.6   C64.5,25,65.3,25.7,66.1,25.7z"/></g><text x="0" y="115" fill="#000000" font-size="5px" font-weight="bold" font-family="'Helvetica Neue', Helvetica, Arial-Unicode, Arial, Sans-serif">Created by Martyn Jasinski</text><text x="0" y="120" fill="#000000" font-size="5px" font-weight="bold" font-family="'Helvetica Neue', Helvetica, Arial-Unicode, Arial, Sans-serif">from the Noun Project</text></svg>