<svg xmlns="http://www.w3.org/2000/svg" xmlns:xlink="http://www.w3.org/1999/xlink" version="1.1" x="0px" y="0px" viewBox="0 0 236.002 273.5725" style="enable-background:new 0 0 236.002 218.858;" xml:space="preserve"><g><path d="M144.271,114.359c1.562-0.287,3.044-0.579,4.441-0.874v-0.871c0.578,0.151,1.171,0.312,1.782,0.482   c2.454-0.553,4.613-1.113,6.388-1.671c2.068-0.639,3.262-1.168,3.801-1.43c0.065-0.031,0.764,0.465,1.813,1.283   c-0.007,0.005-0.006,0.005-0.014,0.01c-0.184,0.115-0.496,0.299-0.934,0.508c-0.875,0.428-2.24,0.971-4.074,1.541   c-3.678,1.152-9.211,2.428-16.799,3.68c-4.359,0.721-7.307,4.838-6.588,9.197c0.65,3.916,4.041,6.697,7.885,6.697   c0.434,0,0.873-0.035,1.314-0.109c8.062-1.336,14.193-2.703,18.963-4.191c4.777-1.557,8.193-2.953,11.277-5.699   c0.24-0.223,0.458-0.459,0.664-0.703c0.006,0.008,0.012,0.016,0.017,0.023c0.714-0.758,1.388-1.647,1.944-2.718   c0.734-1.395,1.212-3.141,1.205-4.865c0.002-1.754-0.465-3.387-1.096-4.67c-0.631-1.293-1.402-2.287-2.17-3.109   c-1.551-1.633-3.137-2.678-4.764-3.621c-3.242-1.834-6.797-3.152-10.285-4.289c-3.977-1.281-7.829-2.251-10.427-2.853   C148.506,101.537,147.074,107.551,144.271,114.359z"/><circle cx="121.668" cy="17.5" r="17.5"/><path d="M58.449,39.047c-0.292,2.744,1.696,5.208,4.443,5.502l41.719,4.44l0.046,0.472c4.41-4.261,10.406-6.891,17.01-6.891   s12.601,2.631,17.011,6.893l0.047-0.475l41.717-4.44c2.746-0.294,4.736-2.758,4.444-5.502c-0.293-2.746-2.757-4.734-5.501-4.443   L133.387,39.5h-23.43l-46.008-4.897C61.204,34.312,58.742,36.3,58.449,39.047z"/><path d="M141.973,134.912c-4.908,0-9.053-3.52-9.859-8.373c-0.176-1.069-0.169-2.126-0.012-3.143   c-0.461-0.132-0.917-0.289-1.36-0.498c-2.101-1-3.687-2.756-4.465-4.943c-0.781-2.189-0.662-4.551,0.337-6.652   c4.049-8.506,4.635-13.547,4.625-15.793c-0.002-0.089-0.009-0.157-0.012-0.242h-20.166c-0.002,0.083-0.01,0.155-0.01,0.24   c-0.01,2.25,0.576,7.289,4.627,15.795c0.996,2.102,1.116,4.461,0.335,6.65c-0.778,2.189-2.364,3.943-4.464,4.939   c-0.125,0.06-0.255,0.104-0.382,0.156c0.215,1.123,0.252,2.299,0.056,3.49c-0.807,4.854-4.951,8.373-9.859,8.373   c-0.553,0-1.107-0.047-1.648-0.137c-1.787-0.296-3.475-0.596-5.094-0.899v37.513c0,4.268,3.459,7.729,7.728,7.729h38.635   c4.27,0,7.729-3.461,7.729-7.729v-37.513c-1.619,0.304-3.307,0.604-5.094,0.899C143.078,134.865,142.523,134.912,141.973,134.912z"/><path d="M100.997,80.197c-1.24,1.287-2.41,2.862-3.341,4.741c-1.468,2.927-2.314,6.509-2.307,10.563   c0.013,5.363,1.393,11.543,4.563,19.012c0.998,0.18,2.017,0.357,3.072,0.531c3.646,0.602,6.501,3.124,7.722,6.359   c0.038-0.018,0.076-0.029,0.114-0.047c3.492-1.658,4.979-5.832,3.322-9.322c-3.728-7.834-4.808-13.236-4.793-16.533   c0.008-2.186,0.417-3.463,0.836-4.316c0.422-0.835,0.923-1.373,1.453-1.772C107.257,87.44,103.559,84.216,100.997,80.197z"/><path d="M131.01,89.713c0.069,0.064,0.14,0.128,0.205,0.197c0.756,0.873,1.66,2.008,1.725,5.592   c0.015,3.297-1.064,8.699-4.791,16.533c-1.659,3.49-0.172,7.666,3.322,9.324c0.338,0.161,0.685,0.281,1.032,0.384   c1.143-3.398,4.074-6.076,7.849-6.698c0.663-0.109,1.304-0.221,1.944-0.332c3.229-7.56,4.63-13.8,4.644-19.211   c0.008-4.055-0.84-7.637-2.307-10.563c-0.782-1.577-1.725-2.921-2.734-4.07C139.222,84.779,135.441,87.878,131.01,89.713z"/><path d="M69.807,122.912c3.084,2.746,6.502,4.143,11.279,5.699c4.77,1.488,10.898,2.855,18.961,4.191   c0.441,0.074,0.883,0.109,1.314,0.109c3.846,0,7.236-2.781,7.887-6.697c0.717-4.359-2.231-8.477-6.591-9.197   c-7.587-1.252-13.12-2.527-16.796-3.68c-1.836-0.57-3.201-1.113-4.076-1.541c-0.438-0.209-0.75-0.393-0.934-0.508   c-0.007-0.004-0.007-0.005-0.013-0.009c1.05-0.818,1.749-1.315,1.813-1.284c0.539,0.262,1.732,0.791,3.799,1.43   c1.775,0.558,3.935,1.118,6.39,1.671c0.61-0.171,1.202-0.33,1.78-0.482v0.87c1.061,0.225,2.158,0.447,3.315,0.667   c-2.708-6.623-4.109-12.49-4.254-17.802c-2.532,0.607-5.914,1.49-9.39,2.609c-3.488,1.137-7.043,2.455-10.285,4.289   c-1.627,0.943-3.213,1.988-4.764,3.621c-0.77,0.822-1.541,1.816-2.172,3.109c-0.631,1.283-1.096,2.916-1.094,4.67   c-0.008,1.725,0.469,3.471,1.203,4.865c0.558,1.071,1.231,1.96,1.946,2.719c0.005-0.008,0.011-0.015,0.016-0.022   C69.35,122.453,69.567,122.69,69.807,122.912z"/><circle cx="121.667" cy="67.068" r="22.5"/><path d="M36.014,157.655c0.25,0.88,1.052,1.453,1.923,1.453c0.182,0,0.366-0.024,0.55-0.077l-0.002-0.002   c11.392-3.248,25.083-5.817,40.273-7.456c1.099-0.122,1.893-1.107,1.773-2.204c-0.119-1.099-1.104-1.893-2.203-1.773   c-15.379,1.661-29.274,4.261-40.941,7.589C36.324,155.485,35.708,156.592,36.014,157.655z"/><path d="M176.221,214.213c1.089-0.188,1.819-1.223,1.632-2.31c-0.186-1.09-1.221-1.82-2.31-1.632v-0.002   c-16.906,2.915-36.57,4.589-57.543,4.589c-31.866,0.004-60.722-3.871-81.451-10.069c-10.362-3.093-18.688-6.78-24.278-10.736   c-5.634-3.981-8.298-8.056-8.271-11.859c0.005-2.267,0.885-4.541,2.793-6.913c1.904-2.358,4.832-4.743,8.672-7.007   c0.95-0.562,1.265-1.788,0.705-2.737c-0.562-0.952-1.788-1.267-2.738-0.705c-4.122,2.434-7.418,5.058-9.748,7.936   c-2.326,2.867-3.687,6.065-3.684,9.426c0.027,5.768,3.854,10.814,9.962,15.127c18.391,12.9,59.708,21.487,108.038,21.538   C139.189,218.858,159.059,217.17,176.221,214.213z"/><path d="M195.262,156.323c-0.297,1.065,0.325,2.168,1.389,2.464c11.19,3.12,20.23,6.912,26.321,11.02   c6.139,4.136,9.061,8.417,9.027,12.385c0.009,3.212-1.83,6.558-5.798,9.95c-3.943,3.368-9.898,6.621-17.446,9.505   c-1.033,0.393-1.55,1.55-1.154,2.583c0.306,0.796,1.065,1.285,1.871,1.285c0.237,0,0.479-0.042,0.714-0.132   c7.821-2.996,14.132-6.387,18.61-10.198c4.455-3.789,7.197-8.164,7.206-12.993c-0.036-6.029-4.192-11.252-10.796-15.7   c-6.652-4.477-16.02-8.354-27.481-11.559C196.66,154.638,195.558,155.259,195.262,156.323z"/><path d="M82.314,167.565c4.86-0.961,3.416-5.942-1.34-5.002c-9.777,1.934-22.529,4.506-29.353,12.552   c-7.542,8.895,5.725,15.7,12.521,18.335c3.098,1.201,9.048-3.243,4.516-5c-4.59-1.78-15.45-6.439-9.495-12.497   C64.56,170.463,75.185,168.975,82.314,167.565z"/><path d="M163.107,190.528c-22.854,6.574-48.521,6.354-71.905,3.285c-3.414-0.447-8.041,4.352-2.832,5.035   c27.135,3.561,57.937,3.516,83.861-6.328c5.385-2.045,13.977-6.109,14.326-12.867c0.516-9.98-17.183-13.975-24.017-15.688   c-2.909-0.729-9.157,3.585-4.588,4.73c5.086,1.275,21.961,4.754,20.715,12.789C177.825,186.909,167.182,189.356,163.107,190.528z"/></g><text x="0" y="233.858" fill="#000000" font-size="5px" font-weight="bold" font-family="'Helvetica Neue', Helvetica, Arial-Unicode, Arial, Sans-serif">Created by Gan Khoon Lay</text><text x="0" y="238.858" fill="#000000" font-size="5px" font-weight="bold" font-family="'Helvetica Neue', Helvetica, Arial-Unicode, Arial, Sans-serif">from the Noun Project</text></svg>