<svg xmlns="http://www.w3.org/2000/svg" xmlns:xlink="http://www.w3.org/1999/xlink" version="1.1" x="0px" y="0px" viewBox="-549 351 100 125" style="enable-background:new -549 351 100 100;" xml:space="preserve"><path d="M-458.7,384.6c-1-3.5-2.9-7.2-4.6-10.3c-1.9-3.5-7.7-3.8-11.2-4.8c-4.9-1.3-7.7-1.8-11.6,1.6  c-3.9,3.5-9.1,7.7-9.2,13.2c-0.1,2.5,0.4,4.9,0.7,7.4c0.4,3.4-0.1,7.3,1.9,10.3c2.1,3,5.3,3,8.5,3.8c4.7,1.2,11.3,2.7,15.1-0.7  c3.1-2.8,6.7-5.3,9.2-8.7C-456.9,392.5-457.4,389.4-458.7,384.6z M-476.3,386.5c1.1,5.5,2,10.2,3.2,15.7c-1.3-4.5-3.2-9-5.1-13.3  c-1.1-2.5-1.9-4.1-4.6-4.9c-2.9-0.9-6.2-1-9.2-1.4l-1-0.5c4.8,0,10.8,1.4,13.8,0.4c2.7-1,9.2-7.1,11.9-8.6  C-470.1,377.9-477.4,381.1-476.3,386.5z"/><path d="M-497,414.7c0.1-3.6-0.5-7.7-1.2-11.2c-0.7-3.9-6.1-6-9.2-8c-4.3-2.7-6.8-4.1-11.5-2  c-4.8,2.1-11,4.6-12.9,9.8c-0.8,2.3-1.1,4.8-1.6,7.3c-0.7,3.4-2.4,6.9-1.3,10.4c1,3.4,4.1,4.5,6.9,6.3c4.1,2.6,10,6.1,14.6,4  c3.8-1.7,8-3,11.4-5.5C-497.8,422.7-497.2,419.6-497,414.7z M-514.4,411.1c-0.6,5.5-1.2,10.4-1.8,16c0.1-4.7-0.3-9.5-0.7-14.2  c-0.3-2.7-0.5-4.5-2.9-6.1c-2.5-1.7-5.6-2.9-8.3-4.2l-0.8-0.7c4.5,1.4,9.8,4.7,13,4.6c2.9-0.1,11-3.9,13.9-4.6  C-505.8,404.9-513.8,405.6-514.4,411.1z"/><text x="-549" y="466" fill="#000000" font-size="5px" font-weight="bold" font-family="'Helvetica Neue', Helvetica, Arial-Unicode, Arial, Sans-serif">Created by Waiyi Fung</text><text x="-549" y="471" fill="#000000" font-size="5px" font-weight="bold" font-family="'Helvetica Neue', Helvetica, Arial-Unicode, Arial, Sans-serif">from the Noun Project</text></svg>