<svg xmlns="http://www.w3.org/2000/svg" xmlns:xlink="http://www.w3.org/1999/xlink" version="1.1" x="0px" y="0px" viewBox="0 0 24 18.75" style="enable-background:new 0 0 24 15;" xml:space="preserve"><title>20 - Pinball (Outline)</title><desc>Created with Sketch.</desc><g><g><path d="M2.4,8C1.9,7.7,1.9,6.9,2.3,6.5c0.4-0.4,1.2-0.4,1.5,0.1l4.5,5.9L2.4,8z M0.9,5.1    c-1.3,1.3-1.2,3.4,0.3,4.6l6.6,5c0.8,0.6,1.8,0.5,2.5-0.2c0.7-0.7,0.7-1.7,0.2-2.5l-5-6.6C4.3,3.9,2.2,3.8,0.9,5.1z"/><path d="M15,4c0,1.1-0.9,2-2,2s-2-0.9-2-2s0.9-2,2-2S15,2.9,15,4z M17,4c0-2.2-1.8-4-4-4S9,1.8,9,4s1.8,4,4,4    S17,6.2,17,4z"/></g></g><path d="M13.9,11.3l6.6-3.5c0.6-0.3,1.2,0,1.4,0.6c0.2,0.6-0.1,1.2-0.7,1.4L13.9,11.3z M19.6,6.1l-7.3,3.9  c-0.8,0.4-1.2,1.4-0.9,2.3c0.3,0.9,1.3,1.4,2.2,1.2l8.1-1.8c1.8-0.4,2.8-2.3,2.2-4S21.2,5.2,19.6,6.1z"/><text x="0" y="30" fill="#000000" font-size="5px" font-weight="bold" font-family="'Helvetica Neue', Helvetica, Arial-Unicode, Arial, Sans-serif">Created by Ben Davis</text><text x="0" y="35" fill="#000000" font-size="5px" font-weight="bold" font-family="'Helvetica Neue', Helvetica, Arial-Unicode, Arial, Sans-serif">from the Noun Project</text></svg>