<svg xmlns="http://www.w3.org/2000/svg" xmlns:xlink="http://www.w3.org/1999/xlink" version="1.1" x="0px" y="0px" viewBox="0 0 100 125" enable-background="new 0 0 100 100" xml:space="preserve"><g><path d="M70.4,34.739c-19.22-7.368-30.897-0.249-36.05,4.49c-4.589-2.24-16.205-6.377-27.082,2.235   c-11.95,9.458-5.735,24.707,6.692,27.273c6.298,1.3,14.543,0,14.543,0s-1.028-4.582,1.799-8.236   c1.361-1.761,3.612-3.077,5.872-4.034v10.438c0,0-0.088,2.313,1.652,2.382c2.337,0.091,3.116-2.122,3.116-2.122l2.847-6.72   l6.972,7.71c1.896,2.353,3.791,0.76,3.373-0.747c-0.135-0.483-3.39-11.263-3.39-11.263l7.942,0.02L58.68,66.861   c0,0,0.12,2.243,1.593,2.426c1.919,0.239,3.107-2.653,3.107-2.653l3.104-7.098l8.275,8.564c2.957,2.652,5.23,0.531,4.474-1.062   c-0.297-0.621-6.739-11.806-7.192-12.593c3.035,0.151,6.417,0.545,8.845,1.465c12.093,4.581,16.521,15.147,18.05,13.251   C100.638,67.052,91.695,42.902,70.4,34.739z M88.396,55.953c-0.681,0-1.232-0.552-1.232-1.232s0.552-1.232,1.232-1.232   s1.232,0.552,1.232,1.232S89.077,55.953,88.396,55.953z"/></g><text x="0" y="115" fill="#000000" font-size="5px" font-weight="bold" font-family="'Helvetica Neue', Helvetica, Arial-Unicode, Arial, Sans-serif">Created by Luis Prado</text><text x="0" y="120" fill="#000000" font-size="5px" font-weight="bold" font-family="'Helvetica Neue', Helvetica, Arial-Unicode, Arial, Sans-serif">from the Noun Project</text></svg>