<svg xmlns="http://www.w3.org/2000/svg" xmlns:xlink="http://www.w3.org/1999/xlink" version="1.1" x="0px" y="0px" viewBox="0 0 100 125" enable-background="new 0 0 100 100" xml:space="preserve"><path d="M94.576,75.88c-1.094-3.003-3.402-4.154-5.438-5.169c-1.873-0.934-3.351-1.671-3.638-3.605  C83.601,54.307,77.044,40.462,66.62,35.82c0.029-0.081,0.068-0.157,0.08-0.245c1.625-12.26-4.648-18.965-10.513-20.981  c-6.18-2.125-14.376-0.867-19.513,6.404c-2.613-3.419-7.426-7.436-15.435-6.896C14.16,14.576,10.236,18.164,8.19,21.09  C5.244,25.305,4.23,31.076,5.605,35.79c1.738,5.957,6.393,12.718,14.232,20.671c5.772,5.855,12.051,9.29,17.225,9.421  c0.121,0.003,0.241,0.004,0.362,0.004c9.107-0.001,18.234-8.618,23.335-16.089c5.205,4.161,7.929,10.652,8.097,19.419  c0.015,0.729-0.528,0.999-2.209,1.642c-1.73,0.662-4.101,1.57-6.364,4.021c-1.641,1.778-2.151,3.863-1.397,5.722  c0.766,1.889,3.549,5.136,13.573,5.68c0.645,0.034,1.442,0.057,2.352,0.057c5.772,0,15.983-0.901,19.17-5.201  C95.097,79.631,95.298,77.862,94.576,75.88z M58.708,48.369c-5.127,7.517-13.662,15.016-21.29,15.016  c-0.097,0-0.194-0.001-0.291-0.004c-4.467-0.112-10.264-3.356-15.508-8.676C14.078,47.055,9.625,40.638,8.006,35.09  c-1.171-4.016-0.295-8.949,2.234-12.567c1.732-2.478,5.075-5.517,11.165-5.925c11.664-0.764,15.349,9.321,15.5,9.752  c0.227,0.651,0.936,0.994,1.59,0.77c0.653-0.226,0.999-0.938,0.772-1.591c-0.011-0.033-0.344-0.954-1.087-2.257  c4.357-6.929,11.705-8.198,17.193-6.313c4.925,1.693,10.162,7.421,8.875,17.989c-1.35-0.396-2.753-0.651-4.217-0.727  c-2.947-0.152-6.138,0.286-8.919,1.204c-0.125-0.203-0.299-0.378-0.539-0.47c-2.045-0.785-4.425-1.199-6.883-1.199  c-3.477,0-12.715,0-12.715,7.707c0,2.878,1.652,7.706,12.715,7.706c3.796,0,7.35-0.989,9.752-2.714  c0.141-0.101,0.243-0.232,0.322-0.374c1.811,0.607,3.463,1.366,4.95,2.281C58.713,48.364,58.71,48.366,58.708,48.369z   M92.856,80.303c-2.949,3.978-14.037,4.919-20.32,4.579c-6.758-0.366-11.26-2.118-12.352-4.808  c-0.549-1.354-0.149-2.862,1.129-4.245c2.041-2.21,4.145-3.016,5.836-3.663c1.686-0.646,3.143-1.204,3.109-2.978  c-0.25-13.09-5.925-21.405-16.866-24.715c-0.114-0.034-0.226-0.031-0.333-0.011c-0.311-0.079-0.649-0.039-0.93,0.163  c-2.027,1.456-5.103,2.291-8.439,2.291c-4.773,0-10.464-0.946-10.464-5.455c0-2.698,1.243-5.456,10.464-5.456  c2.185,0,4.287,0.363,6.077,1.049c0.215,0.083,0.436,0.074,0.646,0.027c0.101,0.009,0.205,0,0.306-0.039  c2.8-1.066,6.164-1.587,9.238-1.424c13.472,0.706,21.966,16.923,24.155,31.692c0.394,2.658,2.43,3.672,4.4,4.654  c1.89,0.942,3.844,1.916,4.746,4.394C93.817,77.893,93.687,79.183,92.856,80.303z"/><path d="M29.356,27.058c1.664-0.177,2.802,0.43,3.411,0.891c0.322,0.244,0.504,0.449,0.522,0.47  c0.304,0.375,0.855,0.433,1.232,0.129c0.376-0.304,0.433-0.856,0.129-1.232c-0.079-0.097-1.972-2.381-5.481-2  c-4.084,0.438-5.833,2.589-5.905,2.68c-0.298,0.377-0.235,0.92,0.138,1.222c0.161,0.13,0.355,0.193,0.548,0.193  c0.255,0,0.507-0.11,0.681-0.321c0.022-0.027,0.266-0.304,0.747-0.646C26.1,27.932,27.372,27.27,29.356,27.058z"/><path d="M44.639,28.217c0.255,0,0.507-0.11,0.681-0.321c0.022-0.027,0.265-0.304,0.746-0.646c0.722-0.513,1.994-1.175,3.978-1.387  c1.661-0.176,2.8,0.431,3.411,0.892c0.323,0.244,0.506,0.449,0.524,0.47c0.304,0.375,0.854,0.433,1.231,0.129  c0.375-0.304,0.434-0.856,0.129-1.232c-0.078-0.098-1.971-2.377-5.481-2.001c-4.084,0.438-5.833,2.589-5.905,2.68  c-0.298,0.377-0.235,0.92,0.138,1.222C44.253,28.154,44.446,28.217,44.639,28.217z"/><path d="M57.127,42.385c-0.375-0.088-0.754,0.137-0.848,0.512c-0.093,0.376,0.137,0.755,0.512,0.848  c9.743,2.401,16.249,11.193,16.981,22.946c0.022,0.37,0.331,0.657,0.698,0.657c0.015,0,0.029-0.001,0.045-0.002  c0.386-0.023,0.679-0.356,0.655-0.742C74.411,54.406,67.328,44.9,57.127,42.385z"/><path d="M56.444,38.897c-0.374-0.061-0.741,0.196-0.804,0.577s0.195,0.742,0.577,0.805c8.589,1.414,19.411,6.653,22.187,23.585  c0.056,0.343,0.353,0.587,0.69,0.587c0.038,0,0.076-0.003,0.114-0.01c0.382-0.063,0.64-0.422,0.577-0.804  C76.876,45.886,65.486,40.386,56.444,38.897z"/><text x="0" y="115" fill="#000000" font-size="5px" font-weight="bold" font-family="'Helvetica Neue', Helvetica, Arial-Unicode, Arial, Sans-serif">Created by emilegraphics</text><text x="0" y="120" fill="#000000" font-size="5px" font-weight="bold" font-family="'Helvetica Neue', Helvetica, Arial-Unicode, Arial, Sans-serif">from the Noun Project</text></svg>