<svg xmlns="http://www.w3.org/2000/svg" xmlns:xlink="http://www.w3.org/1999/xlink" xmlns:a="http://ns.adobe.com/AdobeSVGViewerExtensions/3.0/" version="1.1" x="0px" y="0px" viewBox="-7.989 53.18 100 125" overflow="visible" enable-background="new -7.989 53.18 100 100" xml:space="preserve"><path stroke="#000000" stroke-width="0.25" stroke-miterlimit="10" d="M157.104,70.518c-4.413,0.621-5.576-4.885-5.576-4.885  c-1.034,2.262-5.207,2.889-9.989,2.709c-4.783-0.18-4.913-6.207-4.913-6.207c-3.685,4.059-12.186,1.203-12.186,1.203  c-5.995-0.107-7.882-7.338-7.882-7.338c-14.625-2.018-10.411-15.138-10.411-15.138c-8.354-0.431-7.183-8.924-7.183-8.924  c-11.093-4.996-5.587-13.511-5.587-13.511s-1.351-14.609,12.47-11.981c0,0,3.621-10.558,15.27-4.383c0,0,14.633-3.27,17.609,13.487  c0,0,12.6,1.017,12.438,9.168c-0.164,8.15-0.164,8.15-0.164,8.15s6.972,0,6.735,6.939c-0.235,6.938-1.236,8.963-1.236,8.963  s6.32,4.719,3.18,10.054c-3.14,5.336-1.732,3.848-1.732,3.848s2.879,3.521,2.961,6.418  C160.986,71.987,157.104,70.518,157.104,70.518z"/><path d="M66.659,108.627L64,107.741h-0.888c0,0,7.535-14.923,1.183-18.618c-0.357-0.208-0.699-0.375-1.033-0.525v-0.297l0.888-7.346  c-1.33-2.168-2.513,0-2.513,0l-1.263,6.981c-3.582,0.047-5.269,3.685-5.832,4.586c-0.738,1.182-2.216,7.803-2.069,9  c0.148,1.195,0.148,1.195,0.148,1.195l-7.282-0.59c0,0-0.55-9.163-2.766-12.413c-2.216-3.251-3.25-3.594-3.25-3.594  s18.619-4.062,8.127-28.9c0,0-4.876-7.993-12.56-1.492c0,0-12.265-2.253-14.334,15.939c0,0-10.487-2.994-14.486,2.133  c-0.95-1.598-4.111-6.079-6.021,1.329c0,0-0.861,4.669,4.661,1.856c-0.044,0.246-0.085,0.495-0.112,0.759  c0,0-2.66,12.708,18.175,13.742h5.172c0,0,0.173,12.349,4.728,16.253c1.035,0.887,1.035,0.887,1.035,0.887H31.49  c-3.545,0.149-7.684,5.98-8.865,7.793c-1.182,1.813-8.719,14.719-6.502,25.258c2.066,9.827,10.163,6.771,10.894,6.312  c0.006,0.505,3.042,4.415,8.021,3.396c5.32-1.087,13.004-7.887,15.812-22.221c0,0,3.251,11.527,12.412,7.096  c0,0,6.796,6.059,10.344-1.476C73.604,134.785,79.516,117.495,66.659,108.627z M23.927,89.283c-1.003,0.1-1.951,0.146-2.845,0.146  c-9.895,0-13.208-5.619-13.356-5.879c-0.272-0.48-0.104-1.091,0.376-1.363c0.479-0.271,1.086-0.105,1.36,0.371  c0.139,0.238,3.521,5.807,14.266,4.736c0.556-0.056,1.04,0.347,1.094,0.896C24.877,88.738,24.476,89.228,23.927,89.283z   M33.549,60.012c-0.631,1.992-2.109,17.654-2.177,16.424c-0.077-1.299-1.574-2.56-1.574-2.56  C30.144,67.373,32.99,61.173,33.549,60.012c0.037-0.118,0.072-0.195,0.103-0.211C33.651,59.801,33.609,59.885,33.549,60.012z   M31.502,132.171c-0.021,0.032-0.887,1.354-1.787,3.265l-2.009,8.033c0.034,0.706,0.144,1.396,0.359,2.05  c0.173,0.524-0.112,1.09-0.637,1.263c-0.104,0.034-0.209,0.05-0.312,0.05c-0.42,0-0.812-0.267-0.95-0.688  c-2.091-6.353,3.437-14.73,3.673-15.084c0.307-0.46,0.927-0.583,1.387-0.275C31.685,131.091,31.809,131.711,31.502,132.171z"/><text x="-7.989" y="168.18" fill="#000000" font-size="5px" font-weight="bold" font-family="'Helvetica Neue', Helvetica, Arial-Unicode, Arial, Sans-serif">Created by Whitney Bowers</text><text x="-7.989" y="173.18" fill="#000000" font-size="5px" font-weight="bold" font-family="'Helvetica Neue', Helvetica, Arial-Unicode, Arial, Sans-serif">from the Noun Project</text></svg>