<svg xmlns="http://www.w3.org/2000/svg" viewBox="0 0 100 125" x="0px" y="0px"><title>Emoticons_</title><path d="M50,86.5A36.5,36.5,0,1,1,86.5,50,36.54,36.54,0,0,1,50,86.5Zm0-70A33.5,33.5,0,1,0,83.5,50,33.54,33.54,0,0,0,50,16.5Z"/><circle cx="32.37" cy="52.57" r="3.07"/><circle cx="67.63" cy="52.57" r="3.07"/><path d="M65,60.07H35a1,1,0,0,0-1,1,16,16,0,0,0,32,0A1,1,0,0,0,65,60.07Zm-15,15a14,14,0,0,1-11.37-5.85C40.28,67,43,65.05,50,65.05S59.72,67,61.38,69.21A14,14,0,0,1,50,75.07Z"/><text x="0" y="115" fill="#000000" font-size="5px" font-weight="bold" font-family="'Helvetica Neue', Helvetica, Arial-Unicode, Arial, Sans-serif">Created by Kyle Wagg</text><text x="0" y="120" fill="#000000" font-size="5px" font-weight="bold" font-family="'Helvetica Neue', Helvetica, Arial-Unicode, Arial, Sans-serif">from the Noun Project</text></svg>