<svg xmlns="http://www.w3.org/2000/svg" data-name="Layer 1" viewBox="0 0 90 112.5" x="0px" y="0px"><title>Beach</title><path d="M70.2,40.09a70.22,70.22,0,0,1-.62,7.45,18.5,18.5,0,0,1-7.21,11.78C57,63.36,50.91,65.73,44,65.54A30.44,30.44,0,0,1,32.93,63.3c-7-3-11.47-8.24-12.77-15.81a23.65,23.65,0,0,1,1.51-12.69,28.9,28.9,0,0,1,10.67-14A13.79,13.79,0,0,1,38,18.59,25.35,25.35,0,0,0,40.8,18,22.57,22.57,0,0,1,49,17.07a15.94,15.94,0,0,0,2.21,0,14.82,14.82,0,0,1,11.62,4.71,24,24,0,0,1,7.25,16.92c0,.45,0,.91,0,1.36ZM61,40.9a39.71,39.71,0,0,0-14.9,2.57,3.38,3.38,0,0,0-2.49,2.3,3.69,3.69,0,0,1-.78,1.3,3.49,3.49,0,0,0-.66,3.19,23.82,23.82,0,0,0,3.44,8.26,11.78,11.78,0,0,0,4.75,4,2.55,2.55,0,0,0,2.12.21,29.51,29.51,0,0,0,8.83-4.64,18.18,18.18,0,0,0,7-14.11A1.93,1.93,0,0,0,67.05,42C64.77,40.84,62.31,41,61,40.9ZM50.78,19.2a3.09,3.09,0,0,0-.56-.43,1.93,1.93,0,0,0-.66-.13c-4,0-7.94.25-11.58,2.15-.8.42-1.53,1-2.5.31-.21-.15-.77.06-1.08.25a24.92,24.92,0,0,0-2.26,1.5,2.25,2.25,0,0,0-.94,2.08,15,15,0,0,0,.13,1.69,29.07,29.07,0,0,0,3.27,8.54c.62,1.13.78,1.13,2.07.76a2.89,2.89,0,0,1,1.14-.27c1.65.29,2.24-.65,2.53-2a4.63,4.63,0,0,1,.3-.8,33.67,33.67,0,0,1,9-12.46C50,20,50.35,19.61,50.78,19.2ZM42.91,42.55c0-.59,0-.94-.11-1.27a4.79,4.79,0,0,0-7.07-3.51,20.16,20.16,0,0,0-2,1.77,6.35,6.35,0,0,0-2.24,3.7,4.76,4.76,0,0,0,1.77,5.15,4.93,4.93,0,0,0,5.59.54A7.71,7.71,0,0,0,42.91,42.55ZM24.1,54.15c.28-.12.5-.14.58-.26a32.66,32.66,0,0,1,5.25-6c.91-.79.22-1.79,0-2.69a1.42,1.42,0,0,0-1.51-1.1,12.39,12.39,0,0,0-5.63,1c-1.3.57-1.65,1-1.3,2.35.5,1.9,1.19,3.76,1.85,5.61A4.63,4.63,0,0,0,24.1,54.15Z"/><text x="0" y="105" fill="#000000" font-size="5px" font-weight="bold" font-family="'Helvetica Neue', Helvetica, Arial-Unicode, Arial, Sans-serif">Created by Kate Maldjian</text><text x="0" y="110" fill="#000000" font-size="5px" font-weight="bold" font-family="'Helvetica Neue', Helvetica, Arial-Unicode, Arial, Sans-serif">from the Noun Project</text></svg>