<svg xmlns="http://www.w3.org/2000/svg" xmlns:xlink="http://www.w3.org/1999/xlink" version="1.1" x="0px" y="0px" viewBox="0 0 566.9 708.625" style="enable-background:new 0 0 566.9 566.9;" xml:space="preserve"><path d="M483.1,418.3l-18.3-16.6l-8.1-17.1l-6.1-26.4l0.6-35.4l-10.6-35.5l1.6-9.2l2.2-27.9l23.7-28.6l0.6-0.7l-2.9-30.5l-15.9-32.6  l-23.1-18.7l-4.5-13.6l-17.6-10.2l7.4,30.2l18.2,22.7l5.4,15.3l0,0.5l0,0.1l3.7,25.3l-10.1,19l-17.8,15.3l-16,3.5l-45-3.7l-36.3,3.7  h-52.9l-18.6-7.6l-25.6-12.1l-10.9-13.4l-7.9-40.9l22.4-20.6l10.3-11.5V86.5l-5.6-11.2L203.3,92L185,109.9l-14.5,13.5l-6-6.3  l-16.3,2l-14.4,0.7l-5.1-16l-11.6-17.6l-10.5-12.7l-15-8.6l-10.6,31L81,96.4l5,28.5l7.2,24.6l2.9,6.7l-7.9,11.9l9.9,12.6l3.8,10.5  l-3.1,9.7l8.8,12l7.7,12.8l8.6-3.1l0.6,17.5v24.9l3.2,36.5l9.8,17.1l0,0l3.4,16.4v21.9l12.6,42.6l9.9,19.2v41l-11.1,8.3l-2.6,15.5  L165,493l18.2-3.9l0.2-1.4l6.7,7.8l23.4,3.7l13.2-16.1l-1.8-21.2l-1.1-22l3.9-11.3l-1.7-16v-27.1l6.8-18.2l31.5-8.1l31.1-8.9  l23.9-3.4v13.5l10.2,7.3l12.4-10.3l7.8,5.2l15.5,23.8l27.4,19l16.2,13l4.8,18.9v12.4L401.6,460l1.4,13.9l17.6,3.5l16.4-10.1V447  l1.4-25.5l11.1,10.2l3.7,25.6l-5.8,16.9l-12.8,10.9l8.2,13.8l20.5,3.1l15.3-11.6l7.1-20.7L483.1,418.3z M434.2,166.2l-18-22.4  l-4.8-19.5l7.1,4.1l4.4,13.3l10.3,8.2l1.1,16.6L434.2,166.2z M465.2,408l11.5,10.6l-11.5,4.4V408z M437.9,153.8l8.1,6.4l15.3,31  l2,21.4l-23.5-30.4L437.9,153.8z M443.9,210l-2.8-18.8l22.3,28.9l-20.9,25.3l-9.1-15.9L443.9,210z M410.5,248.3l4.3,33.4l2.3,47.1  l-3,33l-0.1,0.5l18.6,50.3l-18.7-8.4l-12.2-17.5l-3.9-29.6l0-40.4l5.1-34.7l0-0.3l-4.8-30.5L410.5,248.3z M384.5,250.6l9.1,0.8  l4.7,30.2l-5,34.7l0,41.1l2.2,16.9l-12.4-25.1l-1.9-20.2l0-44.1L384.5,250.6z M380.1,250.3l-3.3,34.4l0,44.6l1.5,15.7l-11.5-9.7  l-5.8-31.8l10.3-37.7l0.2-0.6l-4.5-15.9L380.1,250.3z M352.2,247.9l10,0.8l4.6,16.3l-10.3,37.5l-0.1,0.5l5.6,31.2l-17.7,1.6  l-12.6,3.9l15.4-27.1l0.5-0.9l-9.2-27.1L352.2,247.9z M347.3,248.1l-13.5,36.5l9,26.7l-14.4,25.4l-4.6-33.5v-25.8l-6.7-26.1  L347.3,248.1z M217.3,232.1l10.2,4.9l-5.2,65.8l-12.4,23.5l-6.1-42.3L217.3,232.1z M213.3,229.6l-13.9,53.7l-0.1,0.4l7.1,49.7  l0,43.7l4.8,25.7l-4.3,12l-10,4.5l-1.1-13l-0.5-21.1l0-0.2l0-0.1l4.1-37.5l-16.4-47L191,265v-34.8l13.1-12.2L213.3,229.6z   M176.8,373.5l13.6,12.5l-5.1,27.3l-2.6-10.7L176.8,373.5z M182,418.3l-8.1-6l-6.3-30.7l-6.2-24.5l9.8,11.1l7.2,35.4L182,418.3z   M181.6,310.3l13.2,37.7l-2.8,25.6l-12.8-44.8L181.6,310.3z M168.8,251.1l17.8-16.7l0,30.1l-6.3,27.1L168.8,251.1z M187.9,423.8  l3.3-17.6l0,0.4l2.3,26.5l4.3,31.6l-7.2,3.8l-2.7-13.8L187.9,423.8z M90.4,123.9l-4.8-27.1l8.7-25.3l9.3,5.2l10.1,12.2l11.1,16.6  l5.4,16.8l-2.3,21.3l-10.5,18.6l-7.5-11.8l-9.8,3.3l-2.5-5.7L90.4,123.9z M101.1,177.5l-7.4-9.6l6.3-9.6l7.7-2.6l7,11l-5.2,11.6  L101.1,177.5z M105.7,203l-2-2.7l2-6.2V203z M117.2,220.4l-5.9-9.8l-4.5-6.1l12.5,8.1l13.8-15.1l-11-9.3l-15.8,2.2l-2.9-8.1l8.9,0.9  l7-15.6l12.5-22.2l2.5-21.2l14.3-0.7l10.5-1.3l-14.6,21.5l3.1,23.1l0,0l-3.4,13.1l15.6,9.8l14.2-8.5v4l-31.8,26L117.2,220.4z   M110.2,201.3v-6.9l10.5-1.5l5.9,5l-8.1,8.8L110.2,201.3z M149.5,177.9l2.5-10.3l6-7.6l16.2,8v8.1l-14.2,8.4L149.5,177.9z   M132.1,300.8l-3.1-35.8v-24.8l-0.7-19l16-5.7l34.4-28v-22.3l-22-10.8l-5.3,6.7l-2.2-16.2L164,123l6.3,6.7l17.8-16.5l18.1-17.8  L224,82l2.6,5v52.1l-9,10.1l-24.1,22.2l8.2,42.7l-38,35.6l14.6,51l0,0.1l0,0.1l-3.7,27.8l-0.1,0.5l14,49L175,365.7l-16-18.2  L132.1,300.8z M157.5,398l-12.3-41.2l-0.1-22l-0.7-3.7l10.4,18.3l8.4,33.3l6.1,30L166,415L157.5,398z M179.9,481.1L179.9,481.1  l-1,1.4l0.6,0.7l-0.4,2.1l-13.3,2.8l-11.4-7l1.8-10.7l11.4-8.6v-42.6l4.2-3l11.5,8.6l0,30.2l3.2,16.3L179.9,481.1z M220.4,462.2  l1.6,19.5l-10.4,12.7l-19.2-3l-7.9-9.1l4.5-6.5l1.4-2.1l12.1-6.5l-4.7-34.6l-0.7-8.5l11.7-5.2l13.5,2.4l0.7,6.8l-3.9,11.2  L220.4,462.2z M232.3,321.5l-3.5,43.5l-7.3,19.7l0,28.1l0.4,3.7l-10.3-1.8l4.2-11.5l-4.9-26.5l0-42.7l15.6-29.6l5.3-65.4l8,3.8  l7.3,35.3L232.3,321.5z M244,359.8l-10.4,2.7l3.1-39.8l7.5-21.8l3.1,18.2L244,359.8z M261.8,355.2l-13.3,3.4l3.1-39.7l-4.5-26.9  l4.4-12.8l0.2-0.6l-6.9-33.5l14,5.8l2.8,22.5l13.2,38.3L261.8,355.2z M293.3,346.3l-26.3,7.5l12.3-41.6l0.2-0.7l-13.6-39.2  l-2.5-20.8l29.5,0v21.1l11.1,39L293.3,346.3z M298.3,345.4l10.2-33.2l0.2-0.6l-11.3-39.3v-20.7l15.1,0l6.8,26.1l0,25.8l5.3,38.2  L298.3,345.4z M395.2,401.8l-26.6-18.3l-15.5-23.8l-11.6-7.9l-12.3,10.2l-5.5-3.9v-11.9l4.9-0.8l16.6-5.2l18.7-1.6l15.1,12.5  l11.2,26.9l7.4,10.7l12.8,18.4l0.4,0.5l9,4l-8.7,2.9L395.2,401.8z M432.6,446.9v17.8l-12.8,7.9l-12.7-2.5l-0.8-8.2l11.7-10  l-0.1-15.1l-4.5-18.2l12.6-4.2l8.2,3.6L432.6,446.9z M438.4,415.3l-19.8-53.6l3-32.7l-2.3-47.6l-4.6-35.1l15.6-13.1l9.6,16.7  l-2.2,27.7l-1.7,9.7h0l0,0l-0.1,0.4l0,0l-7.2,59.8l-0.1,0.4l11.3,51.8l7.2,23.7L438.4,415.3z M453.1,427.6l-8.8-29.2l-11.1-50.9  l6-49.3l7.5,24.8l-0.5,35.5l6.3,27.4l8.2,17.5v21.1L453.1,427.6z M475,487.6l-12.7,9.7l-16.5-2.5l-5.2-8.7l10.8-9.3l6.5-19  l-3.7-25.7l24.6-9.5l2.6,46.4L475,487.6z M211.7,131.8l5-34L200.5,114l-22.8,30.4l15.5,18.6L211.7,131.8z M183.4,144.3l20.4-27.3  l6.5-6.5l-2.7,19.5l-15,25.3L183.4,144.3z"/><text x="0" y="581.9" fill="#000000" font-size="5px" font-weight="bold" font-family="'Helvetica Neue', Helvetica, Arial-Unicode, Arial, Sans-serif">Created by Liv Iko</text><text x="0" y="586.9" fill="#000000" font-size="5px" font-weight="bold" font-family="'Helvetica Neue', Helvetica, Arial-Unicode, Arial, Sans-serif">from the Noun Project</text></svg>