<svg xmlns="http://www.w3.org/2000/svg" xmlns:xlink="http://www.w3.org/1999/xlink" version="1.1" x="0px" y="0px" viewBox="0 0 100 125" enable-background="new 0 0 100 100" xml:space="preserve"><g><path fill-rule="evenodd" clip-rule="evenodd" d="M69.601,63.457c0.323,0.469,0.079,1.088-0.476,1.164   c-0.561,0.078-0.959,0.027-1.447-0.158c-1.234-0.461-1.893-1.65-2.632-2.689c-0.692-0.971-1.583-1.682-2.341-2.604   c-0.666-0.811-1.345-1.611-2.01-2.42c-0.463-0.562-0.928-1.125-1.363-1.709c-0.783-1.049-1.545-2.115-2.316-3.172   c-0.033-0.045-0.074-0.082-0.164-0.178c-0.083,0.736-0.157,1.41-0.237,2.08c-0.161,1.359-0.335,2.715-0.483,4.074   c-0.102,0.924-0.158,1.854-0.25,2.777c-0.161,1.621-0.354,3.24-0.498,4.863c-0.102,1.141-0.164,2.285-0.206,3.432   c-0.063,1.699-0.127,3.4-0.126,5.102c0,0.939,0.117,1.881,0.207,2.82c0.104,1.07,0.207,2.141,0.364,3.203   c0.216,1.453,0.481,2.898,0.729,4.348c0.183,1.062,0.378,2.121,0.55,3.184c0.112,0.684-0.187,1.146-0.916,1.369   c-0.283,0.086-0.364,0.215-0.367,0.49c-0.004,0.316-0.035,0.641-0.105,0.951c-0.115,0.521-0.425,0.619-0.846,0.297   c-0.044-0.035-0.094-0.061-0.195-0.121c-0.057,0.176-0.113,0.316-0.15,0.463c-0.31,1.244-0.559,2.225-1.252,3.621   c-0.15,0.262-0.312,0.623-0.674,0.549c-0.354-0.152-0.247-0.441-0.157-0.846c0.271-1.223,0.407-2.471,0.601-3.707   c0.029-0.193,0.041-0.436,0.041-0.66c-0.107,0.016-0.201,0.031-0.252,0.041c-0.812,0.176-0.809,0.176-1.074-0.568   c-0.625-1.754-1.197-3.529-1.892-5.256c-1.166-2.893-1.77-5.939-2.565-8.934c-0.494-1.857-0.888-3.738-1.331-5.607   c-0.049-0.205-0.119-0.443-0.289-0.586c0,0.482-0.011,0.965,0.002,1.445c0.019,0.666,0.058,1.33,0.083,1.994   c0.049,1.348,0.093,2.697,0.142,4.045c0.033,0.9,0.063,1.801,0.112,2.699c0.041,0.768,0.111,1.535,0.16,2.303   c0.034,0.561,0.038,1.125,0.083,1.686c0.105,1.316,0.242,2.631,0.322,3.947c0.012,0.209-0.135,0.484-0.333,0.637   c-0.183,0.121-0.383,0.193-0.548,0.268c0,0.391,0.025,0.754-0.005,1.113c-0.066,0.797-0.261,0.885-0.915,0.422   c-0.234,0.504-0.442,1.018-0.706,1.498c-0.328,0.598-0.555,1.041-1.071,1.746c-0.118,0.17-0.383,0.42-0.591,0.346   c-0.233-0.184-0.112-0.459-0.063-0.695c0.089-0.248,0.147-0.502,0.246-0.744c0.453-1.162,0.59-2.195,0.688-3.244   c-0.455,0-0.868,0.023-1.277-0.014c-0.139-0.012-0.345-0.16-0.416-0.287c-0.127-0.223-0.199-0.463-0.239-0.717   c-0.189-1.217-0.355-2.439-0.526-3.66c-0.104-0.732-0.21-1.467-0.299-2.203c-0.128-1.064-0.24-2.131-0.362-3.197   c-0.057-0.49-0.113-0.982-0.185-1.471c-0.305-2.084-0.577-4.176-0.932-6.252c-0.469-2.74-1.039-5.463-1.501-8.203   c-0.391-2.312-0.72-4.637-1.012-6.963c-0.158-1.254-0.216-2.523-0.255-3.787c-0.068-2.221,0.591-4.244,1.993-5.958   c0.825-1.01,1.814-1.891,2.767-2.79c0.394-0.372,0.791-0.708,1.013-1.226c0.204-0.478,0.496-0.918,0.734-1.381   c0.061-0.121,0.105-0.271,0.097-0.403c-0.096-1.499-0.251-2.995-0.296-4.495c-0.051-1.731-0.06-3.469,0.011-5.199   c0.066-1.598,0.262-3.19,0.399-4.785c0.009-0.108,0.001-0.219,0.001-0.437c-0.294,0.37-0.531,0.658-0.757,0.953   c-0.748,0.971-1.488,1.946-2.237,2.916c-0.335,0.433-0.643,0.438-1,0.03c-0.573-0.654-0.574-0.877-0.006-1.589   c1.466-1.833,2.83-3.739,3.949-5.807c0.07-0.13,0.086-0.333,0.042-0.475c-0.288-0.933,0.085-1.963,0.924-2.461   c0.45-0.267,0.925-0.479,1.209-0.972c0.165-0.286,0.478-0.267,0.79-0.198c0.129,0.028,0.343-0.033,0.425-0.13   c1.562-1.846,3.142-3.68,4.652-5.568c1.109-1.386,2.12-2.852,3.185-4.275c0.4-0.537,0.821-1.058,1.236-1.584   c0.522-0.665,0.785-0.735,1.578-0.45c1.579,0.568,3.059,1.328,4.277,2.488C62,8.879,63.109,9.301,64.35,9.479   c1.6,0.23,3.145,0.659,4.627,1.292c0.799,0.341,1.516,0.811,2.005,1.567c0.161,0.248,0.218,0.467,0.016,0.712   c-0.429,0.514-0.799,1.092-1.292,1.533c-0.875,0.783-1.455,1.688-1.629,2.857c-0.148,1.002-0.703,1.8-1.471,2.409   c-1.123,0.889-1.766,2.072-2.283,3.354c-0.045,0.107-0.071,0.222-0.119,0.328c-0.253,0.561-0.389,0.608-0.928,0.313   c-0.834-0.457-1.74-0.679-2.673-0.783c-0.956-0.107-1.756-0.502-2.422-1.176c-0.659-0.668-1.44-1.058-2.376-1.196   c-0.704-0.104-1.406-0.268-2.088-0.477c-0.741-0.227-1.334-0.712-1.84-1.295c-0.641-0.74-1.464-1.19-2.369-1.517   c-0.067-0.024-0.181-0.082-0.197-0.062c-0.344,0.426-0.872,0.824-0.965,1.304c-0.14,0.723-0.229,1.422-0.696,2.019   c-0.26,0.333-0.397,0.695-0.34,1.136c0.239,1.847,0.435,3.7,0.707,5.542c0.1,0.68,0.365,1.335,0.571,2.059   c0.838-0.497,1.58-0.988,2.367-1.39c1.359-0.695,2.813-0.992,4.324-0.659c1.041,0.23,1.919,0.756,2.453,1.741   c0.066,0.124,0.22,0.217,0.354,0.287c0.412,0.215,0.845,0.393,1.25,0.618c0.701,0.391,1.07,1.016,1.016,1.807   c-0.069,1.013-0.213,2.022-0.346,3.031c-0.029,0.225-0.031,0.379,0.133,0.581c0.652,0.8,0.532,1.582-0.232,2.305   c-0.447,0.423-0.949,0.646-1.547,0.713c-0.139,0.016-0.314,0.042-0.404,0.131c-0.682,0.678-1.438,1.225-2.466,1.475   c0.327,0.193,0.575,0.359,0.841,0.493c1.621,0.817,2.744,2.134,3.688,3.634c0.674,1.072,1.396,2.119,1.996,3.231   c0.924,1.716,1.748,3.485,2.641,5.22c1.053,2.049,2.131,4.086,3.207,6.123c0.162,0.309,0.354,0.605,0.564,0.883   c0.336,0.436,0.744,0.74,1.319,0.863c0.622,0.135,1.236,0.344,1.818,0.607c0.186,0.086,0.368,0.244,0.502,0.408   c0.497,0.615,0.229,1.369-0.55,1.461c-0.527,0.062-1.072-0.01-1.608-0.021c-0.183-0.004-0.362,0-0.544,0   C69.064,62.994,69.425,63.189,69.601,63.457z M52.79,88.871c0.741-0.379,1.408-0.697,2.048-1.061   c0.135-0.076,0.242-0.328,0.236-0.492c-0.016-0.391-0.082-0.783-0.173-1.166c-0.409-1.717-0.728-3.445-0.854-5.209   c-0.071-1.018-0.211-2.029-0.291-3.043c-0.07-0.898-0.11-1.797-0.147-2.697c-0.045-1.084-0.095-2.17-0.104-3.256   c-0.008-0.844-0.003-1.689,0.077-2.527c0.193-2.039,0.426-4.076,0.656-6.113c0.152-1.357,0.312-2.713,0.5-4.066   c0.234-1.688,0.51-3.369,0.745-5.057c0.024-0.295-0.044-0.387-0.201-0.498c-0.681-0.389-1.375-0.76-2.088-1.088   c-1.786-0.82-3.775-1.355-5.592-1.673c-0.277-0.047-0.738-0.134-0.743-0.114c-0.074,0.319-0.211,0.381-0.216,0.387   c-0.052,0.035-0.261,0.029-0.388,0.029c-1.285-0.018-2.57-0.051-3.856-0.064c-0.282-0.002-0.318-0.092-0.354-0.392   c-0.014-0.113-0.023-0.334-0.037-0.335c-0.004-0.001-0.245-0.012-0.437-0.007c-0.35,0.024-0.869,0.041-1.21,0.108   c-0.758,0.148-1.389,0.311-2.132,0.516c-0.441,0.123-0.698,0.422-0.67,0.941c0.077,1.436,0.046,2.881,0.195,4.309   c0.226,2.188,0.517,4.371,0.87,6.541c0.37,2.271,0.859,4.521,1.271,6.785c0.192,1.061,0.338,2.129,0.476,3.197   c0.143,1.107,0.248,2.221,0.379,3.328c0.088,0.748,0.201,1.496,0.288,2.244c0.046,0.391,0.053,0.785,0.092,1.176   c0.106,1.051,0.219,2.129,0.388,3.172c0.193,1.189,0.436,2.344,0.679,3.525c0.075,0.365,0.141,0.734,0.21,1.107   c0.852,0.002,1.603-0.203,2.341-0.498c0.306-0.123,0.373-0.314,0.337-0.611c-0.062-0.504-0.117-1.012-0.15-1.518   c-0.123-1.891-0.235-3.781-0.356-5.672c-0.022-0.332-0.076-0.664-0.089-0.996c-0.024-0.666-0.012-1.332-0.047-1.996   c-0.094-1.789-0.24-3.576-0.297-5.365c-0.04-1.207-0.016-2.418,0.068-3.623c0.052-0.736,0.128-1.07,0.276-1.676   c0.126-0.328,0.248-0.467,0.598-0.533c0.297-0.047,0.563,0.076,0.686,0.363c0.199,0.465,0.41,0.91,0.549,1.393   c0.633,2.193,1.248,4.393,1.843,6.598c0.428,1.588,0.771,3.201,1.23,4.781c0.759,2.615,1.574,5.213,2.38,7.812   C52.078,86.807,52.42,87.764,52.79,88.871z M45.45,39.333c0.087,0.023,0.156,0.051,0.004,0.171   c-0.294,0.229-0.585,0.461-0.881,0.688c-0.735,0.562-1.424,1.161-1.776,2.056c-0.056,0.143-0.182,0.261-0.289,0.379   c-1.294,1.418-2.608,2.819-3.879,4.259c-0.807,1.017-0.929,1.944-1.094,3.093c0.222-0.04,0.991-0.187,1.13-0.211   c0.994-0.188,1.146-0.233,2.231-0.369c0.48-0.064,1.187-0.085,1.199-0.098c0.018-0.017,0.005-0.205,0.177-0.342   c0.108-0.08,0.5-0.075,0.668-0.068c1.122,0.045,2.247,0.09,3.368,0.146c0.459,0.021,0.824,0.135,0.747,0.594   c1.504,0.367,2.972,0.719,4.436,1.085c1.484,0.372,2.897,0.92,4.318,1.842c0.11-1.605,0.213-3.059,0.31-4.514   c0.046-0.684,0.065-1.367,0.123-2.047c0.044-0.508,0.295-0.383,0.317-0.246c0.125,0.661,0.213,1.232,0.289,1.878   c0.127,1.085,0.281,2.157,0.84,3.132c0.98,1.708,2.075,3.334,3.327,4.858c0.718,0.871,1.539,1.854,2.194,2.637   c0.646-0.82,1.408-1.389,2.627-1.596c-0.313-0.576-0.709-1.27-1.036-1.898c-1.044-2.01-2.027-4.053-3.135-6.029   c-0.901-1.609-1.908-3.165-2.938-4.697c-1.064-1.585-2.613-2.546-4.42-3.112c-0.428-0.134-0.812-0.058-1.219,0.141   c-0.714,0.349-1.433,0.787-2.195,0.92c-1.489,0.259-3.188-0.331-3.46-2.288c-0.052-0.372-0.278-0.789-0.554-1.048   c-0.725-0.685-1.033-1.504-1.013-2.467c0.004-0.194,0.041-0.441,0.021-0.455c-0.108-0.074-0.268-0.148-0.349-0.223   c-0.186-0.17-0.335-0.497-0.332-0.738c0.01-0.884,0.076-1.771,0.172-2.651c0.051-0.275,0.194-0.517,0.394-0.538   c0.246-0.028,0.617-0.05,0.622-0.04c0.006,0.012,0.417-0.43,0.658-0.714c0.1-0.118,0.306-0.305,0.379-0.443   c0.077-0.146,0.083-0.259,0.055-0.408c-0.199-1.059-0.434-2.111-0.64-3.168c-0.106-0.545-0.176-1.098-0.243-1.523   c-0.93,0.602-1.736,0.7-2.71,0.523c-0.795,4.529-0.577,9.066,0.173,13.621c0.227-0.057,0.357-0.12,0.703-0.166   C45,39.264,45.206,39.276,45.45,39.333z M44.022,24.968c0.724,0.119,1.382,0.03,1.978-0.319c0.378-0.222,0.609-0.55,0.549-1.047   c-0.076-0.635-0.079-1.279-0.141-1.916c-0.037-0.367,0.112-0.625,0.323-0.908c0.474-0.641,0.793-1.336,0.66-2.183   c-0.036-0.227,0.05-0.53,0.19-0.716c0.368-0.487,0.783-0.94,1.203-1.385c0.44-0.466,0.572-0.544,1.029,0.015   c0.2,0.204,0.251,0.398,0.72,0.531c1.048,0.216,1.67,0.958,2.308,1.707c0.158,0.185,0.331,0.381,0.541,0.493   c0.718,0.384,1.507,0.578,2.313,0.549c1.32-0.047,2.439,0.311,3.32,1.333c0.195,0.228,0.44,0.446,0.709,0.574   c1.105,0.529,2.295,0.797,3.471,1.033c0.213-0.477,0.387-0.926,0.61-1.348c0.452-0.857,1.019-1.614,1.835-2.182   c0.782-0.544,1.533-1.162,1.621-2.209c0.076-0.927,0.613-1.569,1.19-2.222c0.49-0.555,0.938-1.15,1.361-1.758   c0.302-0.433,0.245-0.682-0.212-0.938c-0.594-0.334-1.196-0.708-1.844-0.882c-1.18-0.318-2.4-0.482-3.596-0.745   c-1.582-0.347-3.043-0.931-4.354-1.94c-0.879-0.677-1.873-1.241-2.891-1.693c-0.967-0.43-1.013-0.34-1.662,0.506   c-1.35,1.758-2.682,3.531-4.045,5.278c-1.292,1.655-2.615,3.285-3.929,4.923c-0.195,0.242-0.353,0.472-0.771,0.455   c-0.125-0.004-0.222,0.086-0.331,0.211c-0.099,0.114-0.168,0.285-0.252,0.414c-0.487-0.362-0.562-0.365-0.876,0.139   c-0.244,0.393-0.542,0.647-0.999,0.775c-0.651,0.182-0.768,0.632-0.4,1.208c0.092,0.145,0.158,0.412,0.086,0.537   c-0.568,0.981-1.134,1.969-1.775,2.904c-0.889,1.298-1.847,2.549-2.76,3.831c-0.104,0.155-0.179,0.247-0.019,0.413   c0.106,0.099,0.255-0.1,0.327-0.193c0.428-0.553,0.845-1.114,1.255-1.681c0.861-1.191,1.717-2.386,2.573-3.582   c0.258-0.359,0.508-0.724,0.83-1.185C44.601,22.924,44.029,23.916,44.022,24.968z M46.617,35.826   c-0.172,0.945,0.065,1.684,0.737,2.269c0.503,0.439,0.74,0.984,0.778,1.649c0.034,0.584,0.546,1.234,1.055,1.326   c0.557,0.102,1.127,0.17,1.692,0.176c0.584,0.005,1.102-0.16,1.434-0.742c0.354-0.618,0.948-0.922,1.661-0.997   c0.363-0.038,0.722-0.108,1.085-0.15c0.881-0.105,1.605-0.476,2.156-1.186c0.296-0.38,0.647-0.605,1.196-0.533   c0.596,0.079,1.296-0.516,1.371-1.108c0.031-0.234-0.134-0.434-0.271-0.496c-0.159-0.073-0.377-0.017-0.515,0.193   c-0.062,0.093-0.114,0.257-0.162,0.38c-0.143,0.372-0.401,0.524-0.794,0.407c-0.423-0.126-0.343-0.445-0.271-0.748   c0.079-0.333,0.173-0.664,0.258-0.991c-1.021-0.333-1.073-0.31-1.398,0.567c-0.211,0.567-0.547,0.801-1.151,0.781   c-0.335-0.012-0.671-0.035-1.004-0.073c-0.541-0.062-1.081-0.139-1.745-0.227c0.197,0.222,0.315,0.343,0.422,0.474   c0.36,0.446,0.563,0.938,0.513,1.528c-0.026,0.298-0.446,0.662-0.833,0.162c-0.449-0.494-0.799-0.859-1.271-1.262   c-0.176-0.177-0.347-0.219-0.578-0.029c-0.437,0.357-1.052,0.24-1.364-0.267c-0.376,0.307-0.53,0.693-0.913,0.98   c-0.112,0.083-0.279,0.092-0.39,0.058c-0.155-0.048-0.253-0.212-0.274-0.376c-0.021-0.16,0.082-0.398,0.146-0.559   c0.137-0.345,0.435-0.802,0.802-1.083C48.238,35.933,47.317,35.872,46.617,35.826z M47.397,31.562   c0.88,0.071,1.634,0.147,2.534,0.268c0.907,0.1,0.997,0.201,0.992,1.085c0.268,0.031,0.535,0.062,0.822,0.096   c0.017-0.13,0.034-0.236,0.048-0.322c0.055-0.379,0.268-0.517,0.471-0.525c1.507-0.101,3,0.03,4.434,0.535   c0.168,0.059,0.344,0.257,0.373,0.514c0.054,0.199-0.07,0.558,0.052,0.697c0.147,0.17,0.473,0.187,0.72,0.271   c0.124,0.042,0.246,0.085,0.395,0.138c0.029-0.143,0.069-0.269,0.078-0.396c0.018-0.232,0.03-0.465,0.021-0.698   c-0.056-1.378-1.129-2.695-2.479-2.913c-0.681-0.109-1.392-0.037-2.09-0.033c-1.237,0.006-2.487,0.142-3.705-0.008   c-0.763-0.094-1.33,0.03-1.87,0.486C47.923,30.983,47.694,31.257,47.397,31.562z M69.056,63.971   c0.114-0.139-0.216-0.451-0.423-0.549c-0.445-0.256-0.394-0.627-0.01-0.951c0.193-0.154,0.473-0.256,0.707-0.268   c0.563-0.027,1.129,0.053,1.695,0.082c0.169,0.008,0.438,0.061,0.511-0.072c0.063-0.256-0.177-0.395-0.313-0.439   c-0.451-0.139-0.921-0.23-1.391-0.299c-1.01-0.145-1.812-0.566-2.298-1.516c-0.436-0.852-0.915-1.68-1.377-2.521   c-0.966,0.252-1.767,0.68-2.372,1.445c0.074,0.098,0.129,0.184,0.195,0.26c0.575,0.637,1.195,1.238,1.717,1.914   c0.495,0.645,0.861,1.385,1.336,2.045c0.318,0.518,0.801,0.822,1.326,0.959C68.627,64.131,68.941,64.141,69.056,63.971z    M58.095,36.552c-0.044,0.178,0.165,0.194,0.239,0.108c0.091-0.104,0.165-0.278,0.219-0.425c0.502-1.327,0.915-2.668,0.877-4.118   c-0.02-0.735-0.299-1.299-0.926-1.615c-0.736-0.37-1.191-0.675-1.885-1.471c-0.334-0.378-0.969-0.647-1.076-0.686   c-0.857-0.308-1.736-0.524-3.199,0.044c-0.604,0.275-1.18,0.587-1.746,1.142c0.588,0.028,1.053,0.07,1.517,0.068   c0.654-0.003,1.311-0.076,1.964-0.049c0.563,0.023,1.075,0.06,1.657,0.208c0.412,0.125,0.99,0.273,1.291,0.707   c0.025,0.037,0.354,0.08,1.017,0.593c0.456,0.444,0.582,0.661,0.742,1.14c0.174,0.919,0.12,1.889-0.17,2.78   C58.441,35.511,58.271,36.02,58.095,36.552z M44.552,50.493c0.437,0.022,0.875,0.034,1.311,0.069   c0.263,0.021,0.395-0.088,0.392-0.338c-0.003-0.24,0.123-0.588-0.288-0.607c-0.916-0.045-1.834-0.066-2.751-0.074   c-0.432-0.004-0.344,0.347-0.35,0.607c-0.006,0.279,0.139,0.367,0.419,0.35C43.705,50.472,44.129,50.492,44.552,50.493z    M50.091,36.481c-0.091,0.403,0.488,0.334,0.671-0.061c0.312-0.665,0.655-1.276,0.753-2.059c0.03-0.236,0.104-0.492-0.259-0.557   c-0.368-0.065-0.393,0.173-0.458,0.426c-0.138,0.531-0.228,0.967-0.453,1.581C50.214,36.117,50.157,36.236,50.091,36.481z"/></g><text x="0" y="115" fill="#000000" font-size="5px" font-weight="bold" font-family="'Helvetica Neue', Helvetica, Arial-Unicode, Arial, Sans-serif">Created by Antonius</text><text x="0" y="120" fill="#000000" font-size="5px" font-weight="bold" font-family="'Helvetica Neue', Helvetica, Arial-Unicode, Arial, Sans-serif">from the Noun Project</text></svg>