<svg xmlns="http://www.w3.org/2000/svg" xmlns:xlink="http://www.w3.org/1999/xlink" version="1.1" x="0px" y="0px" viewBox="0 0 1000 1250" style="enable-background:new 0 0 1000 1000;" xml:space="preserve"><path d="M623.7,170.1c-28.4-28.4-66.2-44.1-106.4-44.1h-30.7c-40.2,0-78,15.6-106.4,44.1  c-28.4,28.4-44.1,66.2-44.1,106.4v321.2v25h25H448v194.2c0,24.6,20.1,44.7,44.7,44.7h7.9c24.6,0,44.7-20.1,44.7-44.7V622.6h97.5h25  v-25V276.4C667.7,236.2,652.1,198.5,623.7,170.1z M520.3,816.8c0,10.9-8.8,19.7-19.7,19.7h-7.9c-10.9,0-19.7-8.8-19.7-19.7V628.7  h47.3V816.8z M486.7,151h30.7c69.3,0,125.4,56.2,125.4,125.4v210.8c-8.2-7-18.6-12.9-29.8-12c-12.4,1-22.4,9.8-29.7,26  c-8.1,18-17.7,17.6-25.3,15.3c-19.9-6.2-41.5,0.3-55,16.4c-1.7,2-2.7,2.6-3.1,2.8c-2.9-1.2-12.3-12.7-21.4-51.4  c-0.8-3.4-1.5-6.8-2.1-10.1c-1.1-5.8-2.2-11.2-3.7-15.6c-2.7-7.8-7.1-12.3-13.2-13.2c-12.1-1.9-22.6,10.2-45.2,51.7  c-9.1,16.7-18.3,25.6-26,25.1c-10.1-0.6-20.7-16-26.8-27.9V276.4C361.2,207.2,417.4,151,486.7,151z M361.2,597.6v-68.5  c7,7.1,15.6,12.5,25.6,13.1c16.4,1,31.5-10.9,44.9-35.5c12-21.9,19.1-32.4,23.1-37.4c0.7,2.9,1.3,6.2,1.9,8.8  c0.7,3.5,1.4,7.1,2.3,10.8c2.3,9.8,6.1,24,11.2,36.5c7.4,18,15.4,27.5,25.3,29.8c1.3,0.3,2.9,0.5,4.5,0.5c5.3,0,11.8-2.2,18.4-10.1  c8.2-9.8,21.8-13.9,33.7-10.2c12.4,3.8,35.2,5.5,49.5-26.2c2.8-6.2,7.3-13.8,13.1-14.3c9.4-0.8,22.5,13.6,28.1,21.6v80.8H361.2z"/><text x="0" y="1015" fill="#000000" font-size="5px" font-weight="bold" font-family="'Helvetica Neue', Helvetica, Arial-Unicode, Arial, Sans-serif">Created by sai aditya</text><text x="0" y="1020" fill="#000000" font-size="5px" font-weight="bold" font-family="'Helvetica Neue', Helvetica, Arial-Unicode, Arial, Sans-serif">from the Noun Project</text></svg>